<svg width="369" height="141" viewBox="0 0 369 141" fill="none" xmlns="http://www.w3.org/2000/svg">
<path d="M4.84957 64.1929H5.32502V64.527C5.32502 65.7837 5.31709 66.8893 5.30125 67.8438C5.2854 68.7982 5.26955 69.5936 5.2537 70.2299C5.19031 72.807 5.15861 74.7637 5.15861 76.0999C5.15861 77.8339 5.20616 79.5281 5.30125 81.1825C5.04767 81.437 4.46921 81.5643 3.56586 81.5643L2.4961 81.5404C2.25838 81.5245 1.92556 81.5166 1.49766 81.5166C1.149 81.5166 0.808262 81.5563 0.475448 81.6359L0.49922 81.0632C0.2298 81.095 0.0633931 81.1268 0 81.1586C0.110938 79.5201 0.166407 78.0248 0.166407 76.6726C0.166407 75.7659 0.158483 74.9705 0.142634 74.2865C0.126786 73.5865 0.110938 73.0138 0.0950896 72.5684C0.0316965 70.7549 0 69.3789 0 68.4403C0 66.8814 0.0792413 65.2826 0.237724 63.6441C0.4596 63.6123 0.602234 63.5964 0.665627 63.5964C1.10938 63.5964 1.56898 63.6123 2.04443 63.6441C2.40894 63.6918 2.88438 63.7157 3.47077 63.7157H4.84957V64.1929ZM3.49454 63.9543C3.11418 63.9543 2.4961 63.9305 1.6403 63.8827C1.16485 63.8509 0.800337 63.835 0.546765 63.835H0.451676V63.8827C0.309041 65.1713 0.237724 66.6825 0.237724 68.4165C0.237724 69.3391 0.245648 70.1425 0.261496 70.8265C0.277345 71.5105 0.293193 72.0832 0.309041 72.5445C0.372434 74.4217 0.404131 75.8454 0.404131 76.8158C0.404131 78.1521 0.356586 79.4883 0.261496 80.8246C0.483372 80.7928 0.665627 80.7768 0.808262 80.7768C0.998441 80.7768 1.3471 80.7928 1.85425 80.8246C2.42478 80.8564 2.86854 80.8723 3.1855 80.8723C3.94622 80.8723 4.41374 80.7848 4.58807 80.6098C4.49298 78.8918 4.44544 77.1578 4.44544 75.408C4.44544 74.1035 4.47714 72.1946 4.54053 69.6811C4.55638 69.0448 4.57223 68.2574 4.58807 67.3188C4.60392 66.3803 4.61185 65.2906 4.61185 64.0498V63.9543H3.49454Z" fill="black"/>
<path d="M21.418 69.2993C21.4497 69.5539 21.4655 69.7527 21.4655 69.8959V70.1345C21.4497 70.564 21.4418 71.1844 21.4418 71.9957L21.4655 74.6682C21.4814 75.2727 21.4893 76.1715 21.4893 77.3646C21.4893 78.3032 21.4655 79.2656 21.418 80.2519V80.4189C21.418 80.753 21.3942 80.9995 21.3467 81.1586C21.2991 81.3177 21.1565 81.4211 20.9188 81.4688H20.586C20.3641 81.4688 20.0788 81.4529 19.7302 81.4211L19.0408 81.3973C18.9298 81.3973 18.7634 81.4132 18.5415 81.445L18.0185 81.4688C17.765 81.4052 17.5986 81.2461 17.5193 80.9916C17.3133 80.9121 17.1865 80.8246 17.139 80.7291C16.3149 81.2382 15.4987 81.4927 14.6904 81.4927C13.8505 81.4927 13.1056 81.1268 12.4558 80.3951C11.8219 79.6633 11.3306 78.7486 10.9819 77.651C10.6491 76.5374 10.4827 75.4477 10.4827 74.3819C10.4827 73.1729 10.6887 72.1389 11.1008 71.2799C11.5128 70.4049 12.0754 69.7448 12.7886 69.2993C13.5176 68.8539 14.3338 68.6312 15.2372 68.6312C15.6809 68.6312 16.0217 68.663 16.2594 68.7267C16.513 68.7903 16.7428 68.9494 16.9488 69.2039C16.9646 69.1244 16.9805 68.9971 16.9963 68.8221C17.0122 68.6471 17.0518 68.5358 17.1152 68.488C17.1786 68.4403 17.2816 68.4165 17.4242 68.4165C17.5669 68.4165 17.6937 68.4324 17.8046 68.4642C17.9314 68.4801 18.0502 68.488 18.1612 68.488H18.3751C18.7872 68.488 19.5717 68.5278 20.7286 68.6074L20.9426 68.8221L20.9663 69.0846H21.2041L21.418 69.2993ZM18.1136 68.7267L17.4718 68.7028C17.3133 68.7028 17.2182 68.8062 17.1865 69.013C17.1548 69.2039 17.139 69.4823 17.139 69.8482V69.9675C16.9963 69.6175 16.8141 69.363 16.5922 69.2039C16.3703 69.0448 16.1247 68.9494 15.8553 68.9176C15.5858 68.8857 15.2055 68.8698 14.7142 68.8698C13.9693 68.8857 13.2878 69.1403 12.6698 69.6334C12.0675 70.1106 11.5921 70.7629 11.2434 71.5901C10.8948 72.4173 10.7204 73.3479 10.7204 74.3819C10.7204 75.3205 10.8472 76.2829 11.1008 77.2692C11.3544 78.2555 11.7426 79.0906 12.2656 79.7747C12.8045 80.4428 13.4542 80.7768 14.215 80.7768C14.7538 80.7768 15.3085 80.6496 15.879 80.3951C16.4654 80.1246 16.9567 79.7906 17.3529 79.3929C17.3529 79.4883 17.3371 79.6235 17.3054 79.7985C17.2737 79.9576 17.2578 80.1008 17.2578 80.228C17.2578 80.4985 17.3529 80.6734 17.5431 80.753C17.6699 80.753 17.8442 80.7371 18.0661 80.7053L18.5653 80.6814L19.3498 80.7053C19.6985 80.7371 19.952 80.753 20.1105 80.753H20.3958C20.5226 80.7212 20.6018 80.6575 20.6335 80.5621C20.6811 80.4507 20.7048 80.2996 20.7048 80.1087V79.7747C20.7682 78.8361 20.7999 77.7941 20.7999 76.6488L20.7761 74.024C20.7445 72.8468 20.7286 71.956 20.7286 71.3515C20.7286 70.6038 20.7365 70.0391 20.7524 69.6573V69.4187C20.7524 69.2914 20.7365 69.1005 20.7048 68.846C20.2611 68.8142 19.4845 68.7744 18.3751 68.7267H18.1136ZM15.9979 72.0673C16.3941 72.0673 16.6714 72.1071 16.8299 72.1866C17.0043 72.2503 17.1152 72.4014 17.1627 72.64C17.2103 72.8627 17.2341 73.2445 17.2341 73.7854V75.0977C17.2341 75.6704 17.2024 76.1159 17.139 76.434C17.0914 76.7522 16.9567 76.9987 16.7348 77.1737C16.5288 77.3487 16.2039 77.4362 15.7602 77.4362C15.1104 77.4362 14.5953 77.1896 14.215 76.6965C13.8346 76.2033 13.6444 75.5909 13.6444 74.8591C13.6444 74.3342 13.692 73.9126 13.7871 73.5945C13.8822 73.1649 14.1199 72.807 14.5002 72.5207C14.8806 72.2184 15.3798 72.0673 15.9979 72.0673ZM14.5002 74.1433C14.4051 74.4614 14.3576 74.8591 14.3576 75.3364C14.3576 76.5772 14.8251 77.1976 15.7602 77.1976C16.1564 77.1976 16.4416 77.1101 16.616 76.9351C16.7903 76.7601 16.8933 76.5215 16.925 76.2193C16.9726 75.917 16.9963 75.4557 16.9963 74.8353V74.2149L17.0201 73.499C17.0201 73.2445 16.9805 73.0615 16.9012 72.9502C16.8379 72.8388 16.6952 72.7832 16.4733 72.7832C15.9187 72.7832 15.4749 72.9104 15.1421 73.1649C14.8093 73.4195 14.5953 73.7376 14.5002 74.1194V74.1433Z" fill="black"/>
<path d="M26.234 69.3948C27.0105 68.9176 27.8505 68.6789 28.7538 68.6789C29.261 68.6789 29.7364 68.7664 30.1802 68.9414C30.6239 69.1005 30.9884 69.363 31.2737 69.7289L31.8205 69.4425C32.2959 69.188 32.7159 68.9971 33.0804 68.8698C33.4449 68.7426 33.8649 68.6789 34.3403 68.6789C34.8475 68.6789 35.3388 68.7664 35.8142 68.9414C36.2897 69.1164 36.6463 69.3868 36.884 69.7527L37.1693 69.9675C37.5813 70.2856 37.7873 71.6219 37.7873 73.9762C37.7873 74.5967 37.7715 75.5273 37.7398 76.7681C37.7081 77.9771 37.6923 78.8599 37.6923 79.4167C37.6923 80.053 37.7081 80.7053 37.7398 81.3734C37.1693 81.4529 36.5036 81.4927 35.7429 81.4927H34.3166C34.3007 81.3813 34.2928 81.2223 34.2928 81.0155H33.8411C33.7936 80.5223 33.7698 79.5599 33.7698 78.1282V76.9351C33.7698 76.0761 33.754 75.3841 33.7223 74.8591C33.6906 74.3183 33.6034 73.8649 33.4608 73.499C33.3498 73.4513 33.1913 73.4274 32.9853 73.4274C32.6525 73.4274 32.391 73.499 32.2008 73.6422V74.2149C32.2008 74.8194 32.185 75.7261 32.1533 76.9351C32.1216 78.1441 32.1057 79.027 32.1057 79.5838C32.1057 79.8701 32.1295 80.4666 32.1771 81.3734C31.6065 81.4529 30.9409 81.4927 30.1802 81.4927H28.7301C28.7142 81.3813 28.7063 81.2223 28.7063 81.0155H28.2546C28.2071 80.5223 28.1833 79.5599 28.1833 78.1282V76.9351C28.1833 76.0125 28.1674 75.2966 28.1357 74.7875C28.1041 74.2785 28.0169 73.849 27.8743 73.499C27.7633 73.4513 27.5969 73.4274 27.375 73.4274C26.8996 73.4274 26.5668 73.5865 26.3766 73.9047C26.2023 74.2228 26.1151 74.8353 26.1151 75.742C26.1151 76.1715 26.1309 76.7681 26.1626 77.5316C26.1943 78.327 26.2102 78.9077 26.2102 79.2736C26.2102 79.9576 26.1785 80.5541 26.1151 81.0632V81.3257C25.5604 81.4688 25.1008 81.5404 24.7363 81.5404C24.5144 81.5404 24.3401 81.5325 24.2133 81.5166L23.6428 81.4927H23.3813C23.1435 81.4927 22.9137 81.5086 22.6919 81.5404V81.0155L22.2164 81.0632L22.1926 76.5533C22.161 74.5489 22.1451 73.0297 22.1451 71.9957C22.1451 71.1526 22.161 70.0152 22.1926 68.5835C22.573 68.6312 22.9296 68.6551 23.2624 68.6551C23.3892 68.6551 23.5952 68.6312 23.8805 68.5835C24.1816 68.5358 24.5857 68.5119 25.0929 68.5119C25.5208 68.5119 25.7427 68.6074 25.7585 68.7982C25.7585 68.8937 25.8298 68.9812 25.9725 69.0607C26.1309 69.1244 26.2181 69.1959 26.234 69.2755V69.3948ZM25.2355 68.7267C24.7918 68.7267 24.2925 68.7664 23.7379 68.846C23.4843 68.8778 23.3258 68.8937 23.2624 68.8937H22.9771C22.7711 68.8937 22.5889 68.8778 22.4304 68.846C22.3987 69.3391 22.3828 70.0629 22.3828 71.0174V72.473C22.3828 73.4433 22.3987 74.8512 22.4304 76.6965L22.4541 80.8007C22.6443 80.7848 22.8979 80.7768 23.2149 80.7768L24.3559 80.8007C24.6888 80.8007 25.0374 80.753 25.4019 80.6575V80.5621C25.4653 80.0371 25.497 79.4485 25.497 78.7963C25.497 78.3827 25.4812 77.7782 25.4495 76.9828C25.4178 76.1874 25.4019 75.5829 25.4019 75.1693C25.4019 74.2149 25.5208 73.5706 25.7585 73.2365C25.9962 72.8866 26.3766 72.7116 26.8996 72.7116C27.4701 72.7116 27.8346 72.8866 27.9931 73.2365C28.1674 73.5706 28.2705 73.9524 28.3022 74.3819C28.3339 74.7955 28.3576 75.0818 28.3735 75.2409C28.4052 75.4795 28.421 75.8613 28.421 76.3863V79.7508C28.421 80.228 28.4369 80.57 28.4686 80.7768L29.8474 80.8007C30.4179 80.8007 30.9488 80.7609 31.4401 80.6814C31.4084 80.1405 31.3926 79.6951 31.3926 79.3451C31.3926 78.8202 31.4084 77.985 31.4401 76.8397C31.4718 75.5988 31.4877 74.6841 31.4877 74.0956V73.0456C31.7888 72.8229 32.1295 72.7116 32.5099 72.7116C33.0804 72.7116 33.4449 72.8786 33.6034 73.2127C33.7619 73.5467 33.857 73.9285 33.8887 74.358C33.9204 74.7875 33.9441 75.0818 33.96 75.2409C33.9917 75.4795 34.0075 75.8613 34.0075 76.3863V79.7508C34.0075 80.228 34.0234 80.57 34.0551 80.7768L35.4339 80.8007C36.0044 80.8007 36.5353 80.7609 37.0266 80.6814C36.9949 80.0769 36.9791 79.5758 36.9791 79.1781C36.9791 78.6213 36.9949 77.7225 37.0266 76.4817C37.0583 75.1773 37.0742 74.2228 37.0742 73.6183C37.0742 72.5207 37.0345 71.6378 36.9553 70.9697C36.8761 70.2856 36.7334 69.8482 36.5274 69.6573C35.9886 69.1641 35.2516 68.9176 34.3166 68.9176C33.7619 68.9176 33.2785 69.0051 32.8665 69.18C32.4544 69.355 31.8918 69.6493 31.1786 70.0629C31.0201 69.6811 30.6952 69.3948 30.2039 69.2039C29.7285 69.013 29.2372 68.9176 28.7301 68.9176C28.2229 68.9176 27.7712 68.9971 27.375 69.1562C26.9788 69.3153 26.6064 69.4982 26.2577 69.705C25.9091 69.8959 25.6793 70.0232 25.5683 70.0868L25.5921 69.538C25.5921 68.9971 25.4732 68.7267 25.2355 68.7267Z" fill="black"/>
<path d="M53.7336 69.2993C53.7653 69.5539 53.7812 69.7527 53.7812 69.8959V70.1345C53.7653 70.564 53.7574 71.1844 53.7574 71.9957L53.7812 74.6682C53.797 75.2727 53.8049 76.1715 53.8049 77.3646C53.8049 78.3032 53.7812 79.2656 53.7336 80.2519V80.4189C53.7336 80.753 53.7098 80.9995 53.6623 81.1586C53.6147 81.3177 53.4721 81.4211 53.2344 81.4688H52.9016C52.6797 81.4688 52.3944 81.4529 52.0458 81.4211L51.3564 81.3973C51.2454 81.3973 51.079 81.4132 50.8571 81.445L50.3342 81.4688C50.0806 81.4052 49.9142 81.2461 49.8349 80.9916C49.6289 80.9121 49.5021 80.8246 49.4546 80.7291C48.6305 81.2382 47.8143 81.4927 47.006 81.4927C46.1661 81.4927 45.4212 81.1268 44.7714 80.3951C44.1375 79.6633 43.6462 78.7486 43.2975 77.651C42.9647 76.5374 42.7983 75.4477 42.7983 74.3819C42.7983 73.1729 43.0043 72.1389 43.4164 71.2799C43.8284 70.4049 44.3911 69.7448 45.1042 69.2993C45.8332 68.8539 46.6494 68.6312 47.5528 68.6312C47.9965 68.6312 48.3373 68.663 48.575 68.7267C48.8286 68.7903 49.0584 68.9494 49.2644 69.2039C49.2802 69.1244 49.2961 68.9971 49.3119 68.8221C49.3278 68.6471 49.3674 68.5358 49.4308 68.488C49.4942 68.4403 49.5972 68.4165 49.7398 68.4165C49.8825 68.4165 50.0093 68.4324 50.1202 68.4642C50.247 68.4801 50.3658 68.488 50.4768 68.488H50.6907C51.1028 68.488 51.8873 68.5278 53.0442 68.6074L53.2582 68.8221L53.2819 69.0846H53.5197L53.7336 69.2993ZM50.4292 68.7267L49.7874 68.7028C49.6289 68.7028 49.5338 68.8062 49.5021 69.013C49.4704 69.2039 49.4546 69.4823 49.4546 69.8482V69.9675C49.3119 69.6175 49.1297 69.363 48.9078 69.2039C48.6859 69.0448 48.4403 68.9494 48.1709 68.9176C47.9014 68.8857 47.5211 68.8698 47.0298 68.8698C46.2849 68.8857 45.6034 69.1403 44.9854 69.6334C44.3831 70.1106 43.9077 70.7629 43.559 71.5901C43.2104 72.4173 43.036 73.3479 43.036 74.3819C43.036 75.3205 43.1628 76.2829 43.4164 77.2692C43.67 78.2555 44.0582 79.0906 44.5812 79.7747C45.1201 80.4428 45.7699 80.7768 46.5306 80.7768C47.0694 80.7768 47.6241 80.6496 48.1946 80.3951C48.781 80.1246 49.2723 79.7906 49.6685 79.3929C49.6685 79.4883 49.6527 79.6235 49.621 79.7985C49.5893 79.9576 49.5734 80.1008 49.5734 80.228C49.5734 80.4985 49.6685 80.6734 49.8587 80.753C49.9855 80.753 50.1598 80.7371 50.3817 80.7053L50.8809 80.6814L51.6654 80.7053C52.0141 80.7371 52.2676 80.753 52.4261 80.753H52.7114C52.8382 80.7212 52.9174 80.6575 52.9491 80.5621C52.9967 80.4507 53.0204 80.2996 53.0204 80.1087V79.7747C53.0838 78.8361 53.1155 77.7941 53.1155 76.6488L53.0918 74.024C53.0601 72.8468 53.0442 71.956 53.0442 71.3515C53.0442 70.6038 53.0521 70.0391 53.068 69.6573V69.4187C53.068 69.2914 53.0521 69.1005 53.0204 68.846C52.5767 68.8142 51.8001 68.7744 50.6907 68.7267H50.4292ZM48.3135 72.0673C48.7097 72.0673 48.987 72.1071 49.1455 72.1866C49.3199 72.2503 49.4308 72.4014 49.4783 72.64C49.5259 72.8627 49.5497 73.2445 49.5497 73.7854V75.0977C49.5497 75.6704 49.518 76.1159 49.4546 76.434C49.407 76.7522 49.2723 76.9987 49.0504 77.1737C48.8444 77.3487 48.5195 77.4362 48.0758 77.4362C47.426 77.4362 46.9109 77.1896 46.5306 76.6965C46.1502 76.2033 45.96 75.5909 45.96 74.8591C45.96 74.3342 46.0076 73.9126 46.1027 73.5945C46.1978 73.1649 46.4355 72.807 46.8158 72.5207C47.1962 72.2184 47.6954 72.0673 48.3135 72.0673ZM46.8158 74.1433C46.7207 74.4614 46.6732 74.8591 46.6732 75.3364C46.6732 76.5772 47.1407 77.1976 48.0758 77.1976C48.472 77.1976 48.7572 77.1101 48.9316 76.9351C49.1059 76.7601 49.2089 76.5215 49.2406 76.2193C49.2882 75.917 49.3119 75.4557 49.3119 74.8353V74.2149L49.3357 73.499C49.3357 73.2445 49.2961 73.0615 49.2169 72.9502C49.1535 72.8388 49.0108 72.7832 48.7889 72.7832C48.2343 72.7832 47.7905 72.9104 47.4577 73.1649C47.1249 73.4195 46.9109 73.7376 46.8158 74.1194V74.1433Z" fill="black"/>
<path d="M69.228 64.0975C68.705 64.0498 68.1741 64.0259 67.6353 64.0259C67.35 64.0259 67.0647 64.0339 66.7794 64.0498C66.4942 64.0657 66.2168 64.1054 65.9474 64.1691V64.1929C65.884 64.8929 65.8365 65.6883 65.8048 66.5791C65.7889 67.454 65.7652 68.3528 65.7335 69.2755C65.7176 70.1981 65.6938 71.1049 65.6621 71.9957C65.6305 72.8707 65.5829 73.6501 65.5195 74.3342C65.4244 74.0956 65.3135 73.7297 65.1867 73.2365C65.0758 72.7434 64.9569 72.2423 64.8301 71.7332C64.7192 71.2242 64.6003 70.7708 64.4735 70.3731C64.3626 69.9595 64.2754 69.7289 64.212 69.6811C64.1962 69.697 64.1883 69.713 64.1883 69.7289C64.1883 69.7448 64.1803 69.7686 64.1645 69.8004C63.9902 70.5163 63.8158 71.2242 63.6415 71.9241C63.483 72.6082 63.3008 73.3081 63.0947 74.024C62.9204 73.3399 62.8095 72.5684 62.7619 71.7094C62.7144 70.8504 62.6906 69.9754 62.6906 69.0846C62.6906 68.1937 62.6906 67.3109 62.6906 66.4359C62.6906 65.561 62.6589 64.7736 62.5955 64.0736C62.3102 64.0577 62.0091 64.0418 61.6922 64.0259C61.3752 64.01 61.0582 64.002 60.7413 64.002C60.4718 64.002 60.2024 64.0179 59.933 64.0498C59.6794 64.0657 59.4338 64.0895 59.1961 64.1213V64.1452C59.2436 66.8973 59.4496 69.6493 59.8141 72.4014C60.1786 75.1534 60.5511 77.8896 60.9314 80.6098H60.9552C61.3039 80.6575 61.605 80.6814 61.8586 80.6814C62.0804 80.6814 62.2785 80.6734 62.4529 80.6575C62.6272 80.6257 62.8174 80.5939 63.0234 80.5621C63.1502 80.3553 63.2611 80.061 63.3562 79.6792C63.4513 79.2974 63.5464 78.9077 63.6415 78.51C63.7366 78.0964 63.8317 77.7146 63.9268 77.3646C64.0377 76.9987 64.1645 76.7442 64.3071 76.601H64.3309C64.4735 76.8237 64.6003 77.126 64.7113 77.5078C64.8222 77.8896 64.9331 78.2873 65.0441 78.7009C65.155 79.0986 65.258 79.4804 65.3531 79.8462C65.464 80.1962 65.5908 80.4666 65.7335 80.6575H66.8745C67.033 80.6575 67.1757 80.6575 67.3024 80.6575C67.4451 80.6575 67.5719 80.6416 67.6828 80.6098C67.9047 77.8419 68.1583 75.0898 68.4435 72.3536C68.7446 69.6175 69.0141 66.8734 69.2518 64.1213L69.228 64.0975Z" fill="black"/>
<path d="M80.7064 77.4839C79.6287 77.5157 78.5827 77.5078 77.5684 77.4601C76.5541 77.3964 75.524 77.3646 74.478 77.3646L74.4542 77.3408C74.4225 76.959 74.3908 76.4817 74.3591 75.909C74.3433 75.3364 74.375 74.8194 74.4542 74.358C74.5335 74.2944 74.684 74.2546 74.9059 74.2387C75.1278 74.2228 75.3734 74.2149 75.6428 74.2149C75.9281 74.2149 76.2213 74.2149 76.5224 74.2149C76.8235 74.199 77.093 74.1592 77.3307 74.0956C77.3148 73.507 77.3228 72.9422 77.3545 72.4014C77.3862 71.8605 77.3624 71.3196 77.2831 70.7788V70.7549C76.7918 70.739 76.3005 70.731 75.8092 70.731C75.318 70.731 74.8346 70.7151 74.3591 70.6833L74.3354 70.6595C74.2244 70.2299 74.1927 69.7766 74.2403 69.2993C74.3037 68.8062 74.3274 68.329 74.3116 67.8676L74.3354 67.8438H74.4067C74.9297 67.7961 75.4527 67.7722 75.9757 67.7722C76.4986 67.7722 77.0216 67.7802 77.5446 67.7961C78.0676 67.7961 78.5827 67.7881 79.0898 67.7722C79.6128 67.7404 80.1279 67.6688 80.635 67.5574V67.5336C80.635 66.9768 80.6509 66.4121 80.6826 65.8394C80.7301 65.2667 80.7143 64.702 80.635 64.1452C80.635 64.1293 80.4766 64.1134 80.1596 64.0975C79.8426 64.0816 79.4227 64.0736 78.8997 64.0736C78.3767 64.0736 77.7744 64.0816 77.093 64.0975C76.4115 64.1134 75.7062 64.1293 74.9772 64.1452C74.2482 64.1611 73.5192 64.185 72.7902 64.2168C72.077 64.2327 71.4114 64.2566 70.7933 64.2884C70.714 65.6565 70.6665 67.0166 70.6506 68.3687C70.6348 69.7209 70.6348 71.0731 70.6506 72.4252C70.6665 73.7774 70.6903 75.1375 70.722 76.5056C70.7537 77.8578 70.7695 79.2258 70.7695 80.6098C72.3068 80.7371 73.9075 80.7768 75.5715 80.7291C77.2514 80.6655 78.8997 80.6416 80.5162 80.6575C80.643 80.1803 80.7143 79.6712 80.7301 79.1304C80.746 78.5736 80.7381 78.0407 80.7064 77.5316V77.4839Z" fill="black"/>
<path d="M90.535 72.8309C90.4557 72.7354 90.4002 72.6559 90.3685 72.5923C90.3369 72.5286 90.3527 72.4411 90.4161 72.3298C90.7331 71.7889 91.0025 71.2003 91.2243 70.564C91.4621 69.9277 91.5809 69.2755 91.5809 68.6074C91.5809 67.7165 91.4383 66.9688 91.153 66.3643C90.8678 65.7439 90.4795 65.2429 89.9882 64.8611C89.4969 64.4634 88.9264 64.177 88.2766 64.002C87.6426 63.8271 86.977 63.7237 86.2797 63.6918C85.5824 63.66 84.8771 63.6918 84.1639 63.7873C83.4508 63.8827 82.7772 64.018 82.1433 64.1929L82.1195 64.2168C82.1671 66.9848 82.1671 69.7289 82.1195 72.4491C82.072 75.1534 82.0957 77.8816 82.1908 80.6337C82.2701 80.6655 82.3493 80.6814 82.4286 80.6814C82.5237 80.6814 82.6187 80.6814 82.7138 80.6814C83.2844 80.6973 83.8945 80.7291 84.5443 80.7768C85.2099 80.8246 85.8676 80.8405 86.5174 80.8246C87.183 80.8246 87.8249 80.7848 88.443 80.7053C89.0611 80.6098 89.6237 80.4348 90.1308 80.1803C90.638 79.9258 91.0659 79.5678 91.4145 79.1065C91.779 78.6293 92.0247 78.0168 92.1515 77.2692C92.2466 76.7601 92.2624 76.2988 92.199 75.8852C92.1356 75.4716 92.0168 75.0977 91.8424 74.7637C91.684 74.4137 91.4858 74.0876 91.2481 73.7854C91.0263 73.4672 90.7885 73.149 90.535 72.8309ZM88.3003 76.7919C88.1419 76.9828 87.9517 77.126 87.7298 77.2215C87.5238 77.301 87.294 77.3567 87.0404 77.3885C86.8027 77.4044 86.557 77.4123 86.3035 77.4123C86.0657 77.3964 85.8359 77.3885 85.6141 77.3885L85.5665 77.3646C85.4397 77.1737 85.3526 76.9351 85.305 76.6488C85.2575 76.3624 85.2337 76.0681 85.2337 75.7659C85.2496 75.4477 85.2812 75.1375 85.3288 74.8353C85.3763 74.533 85.4318 74.2626 85.4952 74.024C85.7963 74.0558 86.1054 74.0796 86.4223 74.0956C86.7393 74.0956 87.0483 74.1353 87.3494 74.2149C87.5555 74.2626 87.7536 74.366 87.9438 74.5251C88.1339 74.6682 88.2766 74.8353 88.3717 75.0262C88.4826 75.2966 88.5381 75.5988 88.5381 75.9329C88.5539 76.267 88.4747 76.5533 88.3003 76.7919ZM88.2766 69.9913C88.1498 70.23 87.9755 70.4129 87.7536 70.5402C87.5476 70.6515 87.3177 70.7231 87.0642 70.7549C86.8106 70.7867 86.5491 70.7947 86.2797 70.7788C86.0103 70.7629 85.7567 70.739 85.519 70.7072C85.3763 70.1504 85.3288 69.6096 85.3763 69.0846C85.4397 68.5596 85.4556 68.1142 85.4239 67.7483C85.6616 67.6211 85.9548 67.5654 86.3035 67.5813C86.668 67.5813 87.0087 67.6131 87.3257 67.6767C87.5792 67.7404 87.8011 67.8438 87.9913 67.9869C88.1973 68.1142 88.3637 68.3051 88.4905 68.5596C88.6173 68.8142 88.6411 69.0687 88.5618 69.3232C88.4826 69.5777 88.3875 69.8004 88.2766 69.9913Z" fill="black"/>
<path d="M106.576 66.0064C106.29 65.5451 105.91 65.1315 105.434 64.7656C104.975 64.3838 104.492 64.1293 103.984 64.002C103.525 64.0179 103.049 64.0179 102.558 64.002C102.083 63.9861 101.599 63.9782 101.108 63.9782C100.617 63.9623 100.125 63.9782 99.634 64.0259C99.1586 64.0577 98.699 64.1293 98.2552 64.2407C98.2394 64.2566 98.2235 64.2725 98.2077 64.2884C98.2077 64.3043 98.1998 64.3202 98.1839 64.3361C98.2156 65.7201 98.2156 67.12 98.1839 68.5358C98.1681 69.9357 98.1601 71.3276 98.1601 72.7116C98.1601 74.0956 98.1839 75.4636 98.2315 76.8158C98.279 78.1521 98.3899 79.4485 98.5643 80.7053C98.5801 80.6893 98.588 80.6814 98.588 80.6814C99.5865 80.6814 100.617 80.6814 101.678 80.6814C102.74 80.6655 103.794 80.6416 104.84 80.6098C105.442 79.8621 106.013 79.0667 106.552 78.2236C107.106 77.3805 107.542 76.4897 107.859 75.5511C107.859 75.5352 107.859 75.5273 107.859 75.5273C107.875 75.5273 107.883 75.5193 107.883 75.5034C108.026 74.7716 108.105 74.0319 108.121 73.2843C108.152 72.5207 108.184 71.7651 108.216 71.0174C108.2 70.7629 108.176 70.5163 108.145 70.2777C108.129 70.0232 108.081 69.7686 108.002 69.5141C107.859 68.8778 107.669 68.2733 107.431 67.7006C107.209 67.112 106.924 66.5473 106.576 66.0064ZM104.389 74.6682C104.293 74.8114 104.182 74.9546 104.056 75.0977C103.945 75.225 103.81 75.3364 103.652 75.4318C103.572 75.4636 103.501 75.5034 103.438 75.5511C103.374 75.5829 103.303 75.5909 103.224 75.575C102.938 75.6068 102.637 75.6307 102.32 75.6466C102.019 75.6625 101.781 75.5909 101.607 75.4318C101.575 74.8909 101.56 74.3501 101.56 73.8092C101.56 73.2524 101.568 72.7116 101.583 72.1866C101.599 71.6458 101.607 71.1287 101.607 70.6356C101.607 70.1425 101.591 69.6811 101.56 69.2516V69.1562H101.631C101.916 69.0925 102.217 69.0687 102.534 69.0846C102.851 69.0846 103.144 69.1005 103.414 69.1323C103.683 69.2278 103.905 69.3709 104.079 69.5618C104.254 69.7368 104.396 69.9436 104.507 70.1822C104.634 70.4208 104.729 70.6754 104.793 70.9458C104.856 71.2003 104.911 71.4469 104.959 71.6855C105.086 72.2741 105.086 72.815 104.959 73.3081C104.848 73.8013 104.658 74.2546 104.389 74.6682Z" fill="black"/>
<path d="M119.708 77.4839C118.63 77.5157 117.584 77.5078 116.57 77.4601C115.556 77.3964 114.526 77.3646 113.48 77.3646L113.456 77.3408C113.424 76.959 113.392 76.4817 113.361 75.909C113.345 75.3364 113.377 74.8194 113.456 74.358C113.535 74.2944 113.686 74.2546 113.907 74.2387C114.129 74.2228 114.375 74.2149 114.644 74.2149C114.93 74.2149 115.223 74.2149 115.524 74.2149C115.825 74.199 116.095 74.1592 116.332 74.0956C116.316 73.507 116.324 72.9422 116.356 72.4014C116.388 71.8605 116.364 71.3196 116.285 70.7788V70.7549C115.793 70.739 115.302 70.731 114.811 70.731C114.32 70.731 113.836 70.7151 113.361 70.6833L113.337 70.6595C113.226 70.2299 113.194 69.7766 113.242 69.2993C113.305 68.8062 113.329 68.329 113.313 67.8676L113.337 67.8438H113.408C113.931 67.7961 114.454 67.7722 114.977 67.7722C115.5 67.7722 116.023 67.7802 116.546 67.7961C117.069 67.7961 117.584 67.7881 118.091 67.7722C118.614 67.7404 119.129 67.6688 119.637 67.5574V67.5336C119.637 66.9768 119.652 66.4121 119.684 65.8394C119.732 65.2667 119.716 64.702 119.637 64.1452C119.637 64.1293 119.478 64.1134 119.161 64.0975C118.844 64.0816 118.424 64.0736 117.901 64.0736C117.378 64.0736 116.776 64.0816 116.095 64.0975C115.413 64.1134 114.708 64.1293 113.979 64.1452C113.25 64.1611 112.521 64.185 111.792 64.2168C111.079 64.2327 110.413 64.2566 109.795 64.2884C109.716 65.6565 109.668 67.0166 109.652 68.3687C109.636 69.7209 109.636 71.0731 109.652 72.4252C109.668 73.7774 109.692 75.1375 109.724 76.5056C109.755 77.8578 109.771 79.2258 109.771 80.6098C111.308 80.7371 112.909 80.7768 114.573 80.7291C116.253 80.6655 117.901 80.6416 119.518 80.6575C119.645 80.1803 119.716 79.6712 119.732 79.1304C119.748 78.5736 119.74 78.0407 119.708 77.5316V77.4839Z" fill="black"/>
<path d="M130.725 64.4077C130.456 64.36 130.17 64.3361 129.869 64.3361C129.584 64.3202 129.291 64.3122 128.99 64.3122C128.704 64.3122 128.419 64.3122 128.134 64.3122C127.849 64.2963 127.571 64.2566 127.302 64.1929C127.27 64.1929 127.254 64.2088 127.254 64.2407C127.08 64.9088 126.93 65.6246 126.803 66.3882C126.676 67.1518 126.541 67.987 126.399 68.8937C126.256 69.8004 126.09 70.7947 125.899 71.8764C125.709 72.9422 125.464 74.1194 125.162 75.408C124.845 74.1194 124.608 72.8707 124.449 71.6617C124.307 70.4527 124.204 69.3471 124.14 68.3449C124.077 67.3427 124.037 66.4837 124.021 65.7678C124.006 65.052 123.966 64.535 123.902 64.2168C123.776 64.185 123.546 64.1611 123.213 64.1452C122.88 64.1293 122.532 64.1293 122.167 64.1452C121.803 64.1452 121.462 64.1691 121.145 64.2168C120.828 64.2645 120.622 64.3441 120.527 64.4554V64.4793C120.749 67.2313 121.089 69.9675 121.549 72.6877C122.009 75.392 122.595 78.0327 123.308 80.6098C123.562 80.6893 123.863 80.7371 124.212 80.753C124.576 80.7848 124.933 80.8007 125.281 80.8007C125.614 80.8007 125.915 80.7848 126.185 80.753C126.454 80.7212 126.652 80.7053 126.779 80.7053C127.159 79.3213 127.524 77.9612 127.872 76.6249C128.221 75.2727 128.562 73.9285 128.895 72.5923C129.227 71.256 129.544 69.9118 129.846 68.5596C130.163 67.2075 130.456 65.8235 130.725 64.4077Z" fill="black"/>
<path d="M141.623 77.4839C140.545 77.5157 139.499 77.5078 138.485 77.4601C137.471 77.3964 136.441 77.3646 135.395 77.3646L135.371 77.3408C135.339 76.959 135.308 76.4817 135.276 75.909C135.26 75.3364 135.292 74.8194 135.371 74.358C135.45 74.2944 135.601 74.2546 135.823 74.2387C136.045 74.2228 136.29 74.2149 136.56 74.2149C136.845 74.2149 137.138 74.2149 137.439 74.2149C137.74 74.199 138.01 74.1592 138.247 74.0956C138.232 73.507 138.24 72.9422 138.271 72.4014C138.303 71.8605 138.279 71.3196 138.2 70.7788V70.7549C137.709 70.739 137.217 70.731 136.726 70.731C136.235 70.731 135.751 70.7151 135.276 70.6833L135.252 70.6595C135.141 70.2299 135.109 69.7766 135.157 69.2993C135.22 68.8062 135.244 68.329 135.228 67.8676L135.252 67.8438H135.323C135.846 67.7961 136.369 67.7722 136.892 67.7722C137.415 67.7722 137.938 67.7802 138.461 67.7961C138.984 67.7961 139.499 67.7881 140.007 67.7722C140.53 67.7404 141.045 67.6688 141.552 67.5574V67.5336C141.552 66.9768 141.568 66.4121 141.599 65.8394C141.647 65.2667 141.631 64.702 141.552 64.1452C141.552 64.1293 141.393 64.1134 141.076 64.0975C140.759 64.0816 140.339 64.0736 139.816 64.0736C139.293 64.0736 138.691 64.0816 138.01 64.0975C137.328 64.1134 136.623 64.1293 135.894 64.1452C135.165 64.1611 134.436 64.185 133.707 64.2168C132.994 64.2327 132.328 64.2566 131.71 64.2884C131.631 65.6565 131.583 67.0166 131.567 68.3687C131.552 69.7209 131.552 71.0731 131.567 72.4252C131.583 73.7774 131.607 75.1375 131.639 76.5056C131.67 77.8578 131.686 79.2258 131.686 80.6098C133.224 80.7371 134.824 80.7768 136.488 80.7291C138.168 80.6655 139.816 80.6416 141.433 80.6575C141.56 80.1803 141.631 79.6712 141.647 79.1304C141.663 78.5736 141.655 78.0407 141.623 77.5316V77.4839Z" fill="black"/>
<path d="M152.926 78.5577C152.91 78.4304 152.902 78.2873 152.902 78.1282C152.918 77.9532 152.934 77.7862 152.949 77.6271C152.965 77.4521 152.973 77.2771 152.973 77.1021C152.846 77.118 152.617 77.126 152.284 77.126C151.967 77.1101 151.594 77.0942 151.166 77.0783C150.754 77.0624 150.311 77.0465 149.835 77.0305C149.376 76.9987 148.94 76.9749 148.528 76.959C148.116 76.9431 147.751 76.9351 147.434 76.9351C147.133 76.9192 146.927 76.9272 146.816 76.959V76.9351C146.832 75.917 146.832 74.8671 146.816 73.7854C146.816 72.6877 146.808 71.5901 146.792 70.4924C146.776 69.3948 146.761 68.3051 146.745 67.2234C146.745 66.1257 146.761 65.0599 146.792 64.0259C146.57 63.9305 146.277 63.8589 145.913 63.8111C145.548 63.7634 145.176 63.7396 144.795 63.7396C144.415 63.7396 144.059 63.7634 143.726 63.8111C143.393 63.843 143.147 63.8907 142.989 63.9543C143.005 65.0679 143.02 66.086 143.036 67.0086C143.052 67.9154 143.068 68.7744 143.084 69.5857C143.1 70.397 143.108 71.1924 143.108 71.9719C143.108 72.7513 143.1 73.5626 143.084 74.4058C143.084 75.233 143.068 76.1318 143.036 77.1021C143.005 78.0566 142.965 79.1304 142.917 80.3235V80.753C144.835 80.7848 146.364 80.8007 147.506 80.8007C148.662 80.8007 149.566 80.7928 150.216 80.7768C150.881 80.7609 151.349 80.745 151.618 80.7291C151.903 80.7132 152.133 80.7132 152.308 80.7291C152.482 80.7291 152.617 80.7291 152.712 80.7291C152.807 80.7132 152.87 80.6416 152.902 80.5144C152.949 80.3712 152.973 80.1564 152.973 79.8701C152.973 79.5678 152.957 79.1304 152.926 78.5577Z" fill="black"/>
<path d="M163.408 66.603C163.218 66.0462 162.893 65.561 162.433 65.1474C161.973 64.7974 161.451 64.535 160.864 64.36C160.294 64.1691 159.699 64.0577 159.081 64.0259C158.479 63.9941 157.869 64.0418 157.251 64.1691C156.648 64.2804 156.086 64.4634 155.563 64.7179C155.357 64.8452 155.175 64.9883 155.016 65.1474C154.525 65.7042 154.192 66.3484 154.018 67.0802C153.859 67.7961 153.772 68.5119 153.756 69.2278C153.677 70.4845 153.661 71.7412 153.709 72.9979C153.772 74.2387 153.827 75.4795 153.875 76.7204C153.891 77.1817 153.93 77.643 153.994 78.1043C154.073 78.5498 154.224 78.9713 154.446 79.369C154.588 79.6872 154.77 79.9496 154.992 80.1564C155.214 80.3473 155.46 80.5064 155.729 80.6337C156.015 80.7609 156.308 80.8484 156.609 80.8962C156.926 80.9598 157.251 81.0075 157.584 81.0393C158.043 81.0711 158.495 81.0711 158.939 81.0393C159.398 81.0075 159.85 80.928 160.294 80.8007C160.785 80.6734 161.244 80.4985 161.672 80.2757C162.116 80.0371 162.473 79.7269 162.742 79.3451C163.027 78.8838 163.241 78.3748 163.384 77.818C163.527 77.2453 163.614 76.6806 163.645 76.1238L163.717 75.3364C163.78 74.5092 163.804 73.6979 163.788 72.9025C163.772 72.1071 163.788 71.2878 163.836 70.4447C163.852 70.047 163.852 69.6573 163.836 69.2755C163.836 68.8778 163.82 68.4801 163.788 68.0824C163.756 67.8279 163.709 67.5813 163.645 67.3427C163.598 67.0882 163.519 66.8416 163.408 66.603ZM160.864 73.5706C160.864 73.6024 160.856 73.7376 160.84 73.9762C160.84 74.2149 160.832 74.4933 160.817 74.8114C160.785 75.1455 160.769 75.4159 160.769 75.6227C160.785 75.8136 160.785 75.9806 160.769 76.1238C160.753 76.267 160.714 76.4022 160.65 76.5294C160.587 76.6408 160.484 76.7919 160.341 76.9828C160.103 77.2533 159.81 77.4521 159.462 77.5794C159.113 77.6907 158.764 77.7384 158.416 77.7225C158.067 77.6907 157.742 77.5873 157.441 77.4123C157.14 77.2374 156.91 76.9908 156.751 76.6726C156.593 76.1477 156.498 75.5988 156.466 75.0262C156.435 74.4376 156.379 73.8649 156.3 73.3081C156.268 72.64 156.26 71.9719 156.276 71.3037C156.308 70.6356 156.387 69.9993 156.514 69.3948C156.704 68.7267 157.076 68.1778 157.631 67.7483C157.885 67.5574 158.178 67.4222 158.511 67.3427C158.843 67.2631 159.168 67.287 159.485 67.4143C159.85 67.5893 160.135 67.8597 160.341 68.2256C160.563 68.5914 160.69 68.9971 160.721 69.4425C160.737 69.713 160.753 70.0072 160.769 70.3254C160.801 70.6276 160.817 70.7867 160.817 70.8026L160.864 72.4252V73.5706Z" fill="black"/>
<path d="M176.017 69.013C175.969 68.1063 175.763 67.3347 175.398 66.6984C175.034 66.0621 174.566 65.5371 173.996 65.1235C173.441 64.694 172.799 64.3759 172.07 64.1691C171.341 63.9464 170.589 63.8032 169.812 63.7396C169.051 63.6759 168.283 63.6839 167.506 63.7634C166.745 63.843 166.04 63.9702 165.39 64.1452C165.438 65.4656 165.462 66.8495 165.462 68.2971C165.477 69.7448 165.485 71.1844 165.485 72.6161C165.485 74.0478 165.485 75.4477 165.485 76.8158C165.485 78.168 165.509 79.4247 165.557 80.586C165.826 80.6178 166.143 80.6416 166.508 80.6575C166.872 80.6734 167.237 80.6814 167.601 80.6814C167.982 80.6655 168.338 80.6496 168.671 80.6337C169.02 80.6019 169.305 80.5541 169.527 80.4905C169.543 80.4905 169.551 80.4905 169.551 80.4905C169.566 80.4746 169.582 80.4666 169.598 80.4666V80.4428C169.566 79.2815 169.543 78.3589 169.527 77.6748C169.527 76.9908 169.527 76.4499 169.527 76.0522C169.527 75.6386 169.527 75.3284 169.527 75.1216C169.527 74.8989 169.519 74.6762 169.503 74.4535C170.264 74.5807 171.009 74.5489 171.738 74.358C172.467 74.1512 173.132 73.8251 173.734 73.3797C174.337 72.9343 174.836 72.3934 175.232 71.7571C175.644 71.1208 175.898 70.4209 175.993 69.6573C176.009 69.5618 176.017 69.4664 176.017 69.3709C176.017 69.2596 176.017 69.1482 176.017 69.0369V69.013ZM171.856 68.0108C172.062 68.1381 172.221 68.2971 172.332 68.488C172.459 68.6789 172.538 68.8857 172.57 69.1085C172.617 69.3312 172.609 69.5539 172.546 69.7766C172.498 69.9993 172.411 70.1981 172.284 70.3731C172.094 70.564 171.864 70.7072 171.595 70.8026C171.341 70.8822 171.072 70.9379 170.787 70.9697C170.517 71.0015 170.24 71.0253 169.955 71.0413C169.669 71.0413 169.4 71.0492 169.146 71.0651H169.075C168.996 70.8265 168.94 70.564 168.909 70.2777C168.893 69.9754 168.877 69.6652 168.861 69.3471C168.861 69.0289 168.861 68.7108 168.861 68.3926C168.877 68.0744 168.877 67.7722 168.861 67.4859C168.877 67.4699 168.901 67.462 168.932 67.462C169.44 67.3347 169.955 67.3188 170.478 67.4143C171.001 67.4938 171.46 67.6927 171.856 68.0108Z" fill="black"/>
<path d="M187.334 77.4839C186.256 77.5157 185.21 77.5078 184.196 77.4601C183.182 77.3964 182.152 77.3646 181.106 77.3646L181.082 77.3408C181.05 76.959 181.018 76.4817 180.987 75.909C180.971 75.3364 181.003 74.8194 181.082 74.358C181.161 74.2944 181.312 74.2546 181.533 74.2387C181.755 74.2228 182.001 74.2149 182.27 74.2149C182.556 74.2149 182.849 74.2149 183.15 74.2149C183.451 74.199 183.721 74.1592 183.958 74.0956C183.942 73.507 183.95 72.9422 183.982 72.4014C184.014 71.8605 183.99 71.3196 183.911 70.7788V70.7549C183.419 70.739 182.928 70.731 182.437 70.731C181.946 70.731 181.462 70.7151 180.987 70.6833L180.963 70.6595C180.852 70.2299 180.82 69.7766 180.868 69.2993C180.931 68.8062 180.955 68.329 180.939 67.8676L180.963 67.8438H181.034C181.557 67.7961 182.08 67.7722 182.603 67.7722C183.126 67.7722 183.649 67.7802 184.172 67.7961C184.695 67.7961 185.21 67.7881 185.717 67.7722C186.24 67.7404 186.755 67.6688 187.263 67.5574V67.5336C187.263 66.9768 187.278 66.4121 187.31 65.8394C187.358 65.2667 187.342 64.702 187.263 64.1452C187.263 64.1293 187.104 64.1134 186.787 64.0975C186.47 64.0816 186.05 64.0736 185.527 64.0736C185.004 64.0736 184.402 64.0816 183.721 64.0975C183.039 64.1134 182.334 64.1293 181.605 64.1452C180.876 64.1611 180.147 64.185 179.418 64.2168C178.705 64.2327 178.039 64.2566 177.421 64.2884C177.342 65.6565 177.294 67.0166 177.278 68.3687C177.262 69.7209 177.262 71.0731 177.278 72.4252C177.294 73.7774 177.318 75.1375 177.35 76.5056C177.381 77.8578 177.397 79.2258 177.397 80.6098C178.934 80.7371 180.535 80.7768 182.199 80.7291C183.879 80.6655 185.527 80.6416 187.144 80.6575C187.271 80.1803 187.342 79.6712 187.358 79.1304C187.374 78.5736 187.366 78.0407 187.334 77.5316V77.4839Z" fill="black"/>
<path d="M200.039 80.6575C199.801 80.0053 199.508 79.377 199.159 78.7725C198.811 78.1521 198.446 77.5476 198.066 76.959C197.686 76.3704 197.297 75.7897 196.901 75.2171C196.505 74.6285 196.14 74.0399 195.807 73.4513V73.4274H195.926C196.687 73.3797 197.313 73.1649 197.804 72.7832C198.312 72.4014 198.716 71.9241 199.017 71.3515C199.508 70.5243 199.738 69.6732 199.706 68.7982C199.69 67.9074 199.476 67.0961 199.064 66.3643C198.652 65.6326 198.074 65.0201 197.329 64.527C196.584 64.0339 195.744 63.7634 194.809 63.7157C193.652 63.5884 192.543 63.5805 191.481 63.6918C190.419 63.8032 189.444 63.9225 188.557 64.0498C188.589 64.2566 188.612 64.6543 188.628 65.2429C188.66 65.8155 188.684 66.5155 188.7 67.3427C188.715 68.154 188.731 69.0528 188.747 70.0391C188.779 71.0094 188.795 71.9957 188.795 72.9979C188.81 73.9842 188.818 74.9466 188.818 75.8852C188.818 76.8078 188.818 77.6271 188.818 78.3429C188.818 79.0588 188.81 79.6394 188.795 80.0849C188.779 80.5144 188.755 80.7291 188.723 80.7291C188.803 80.7132 189.009 80.7132 189.341 80.7291C189.69 80.745 190.078 80.745 190.506 80.7291C190.934 80.7291 191.362 80.7132 191.79 80.6814C192.234 80.6496 192.59 80.578 192.86 80.4666C192.844 80.1644 192.82 79.7587 192.788 79.2497C192.757 78.7406 192.725 78.2077 192.693 77.651C192.677 77.0783 192.67 76.5295 192.67 76.0045C192.67 75.4636 192.693 75.0103 192.741 74.6444L192.788 74.716C193.121 75.1296 193.454 75.6068 193.787 76.1477C194.12 76.6885 194.429 77.2374 194.714 77.7941C194.999 78.3509 195.261 78.8838 195.498 79.3929C195.736 79.9019 195.934 80.3394 196.093 80.7053H196.117C196.83 80.753 197.527 80.7609 198.209 80.7291C198.89 80.6814 199.508 80.6575 200.063 80.6575H200.039ZM192.028 67.3904C192.582 67.1677 193.129 67.0484 193.668 67.0325C194.207 67.0007 194.651 67.1438 194.999 67.462C195.221 67.637 195.38 67.8756 195.475 68.1778C195.57 68.4642 195.601 68.7585 195.57 69.0607C195.538 69.3471 195.435 69.6175 195.261 69.872C195.102 70.1106 194.872 70.2618 194.571 70.3254C194.191 70.389 193.787 70.4129 193.359 70.397C192.931 70.3811 192.535 70.3572 192.17 70.3254H192.147C192.115 70.1504 192.091 69.9357 192.075 69.6811C192.075 69.4266 192.075 69.1641 192.075 68.8937C192.075 68.6233 192.067 68.3608 192.051 68.1063C192.051 67.8358 192.044 67.5972 192.028 67.3904Z" fill="black"/>
<path d="M215.729 69.2993C215.761 69.5539 215.777 69.7527 215.777 69.8959V70.1345C215.761 70.564 215.753 71.1844 215.753 71.9957L215.777 74.6682C215.793 75.2727 215.801 76.1715 215.801 77.3646C215.801 78.3032 215.777 79.2656 215.729 80.2519V80.4189C215.729 80.753 215.706 80.9995 215.658 81.1586C215.611 81.3177 215.468 81.4211 215.23 81.4688H214.897C214.676 81.4688 214.39 81.4529 214.042 81.4211L213.352 81.3973C213.241 81.3973 213.075 81.4132 212.853 81.445L212.33 81.4688C212.076 81.4052 211.91 81.2461 211.831 80.9916C211.625 80.9121 211.498 80.8246 211.45 80.7291C210.626 81.2382 209.81 81.4927 209.002 81.4927C208.162 81.4927 207.417 81.1268 206.767 80.3951C206.133 79.6633 205.642 78.7486 205.293 77.651C204.961 76.5374 204.794 75.4477 204.794 74.3819C204.794 73.1729 205 72.1389 205.412 71.2799C205.824 70.4049 206.387 69.7448 207.1 69.2993C207.829 68.8539 208.645 68.6312 209.549 68.6312C209.992 68.6312 210.333 68.663 210.571 68.7267C210.824 68.7903 211.054 68.9494 211.26 69.2039C211.276 69.1244 211.292 68.9971 211.308 68.8221C211.324 68.6471 211.363 68.5358 211.427 68.488C211.49 68.4403 211.593 68.4165 211.736 68.4165C211.878 68.4165 212.005 68.4324 212.116 68.4642C212.243 68.4801 212.362 68.488 212.473 68.488H212.687C213.099 68.488 213.883 68.5278 215.04 68.6074L215.254 68.8221L215.278 69.0846H215.516L215.729 69.2993ZM212.425 68.7267L211.783 68.7028C211.625 68.7028 211.53 68.8062 211.498 69.013C211.466 69.2039 211.45 69.4823 211.45 69.8482V69.9675C211.308 69.6175 211.126 69.363 210.904 69.2039C210.682 69.0448 210.436 68.9494 210.167 68.9176C209.897 68.8857 209.517 68.8698 209.026 68.8698C208.281 68.8857 207.599 69.1403 206.981 69.6334C206.379 70.1106 205.904 70.7629 205.555 71.5901C205.206 72.4173 205.032 73.3479 205.032 74.3819C205.032 75.3205 205.159 76.2829 205.412 77.2692C205.666 78.2555 206.054 79.0906 206.577 79.7747C207.116 80.4428 207.766 80.7768 208.526 80.7768C209.065 80.7768 209.62 80.6496 210.191 80.3951C210.777 80.1246 211.268 79.7906 211.664 79.3929C211.664 79.4883 211.649 79.6235 211.617 79.7985C211.585 79.9576 211.569 80.1008 211.569 80.228C211.569 80.4985 211.664 80.6734 211.855 80.753C211.981 80.753 212.156 80.7371 212.378 80.7053L212.877 80.6814L213.661 80.7053C214.01 80.7371 214.264 80.753 214.422 80.753H214.707C214.834 80.7212 214.913 80.6575 214.945 80.5621C214.993 80.4507 215.016 80.2996 215.016 80.1087V79.7747C215.08 78.8361 215.111 77.7941 215.111 76.6488L215.088 74.024C215.056 72.8468 215.04 71.956 215.04 71.3515C215.04 70.6038 215.048 70.0391 215.064 69.6573V69.4187C215.064 69.2914 215.048 69.1005 215.016 68.846C214.573 68.8142 213.796 68.7744 212.687 68.7267H212.425ZM210.309 72.0673C210.706 72.0673 210.983 72.1071 211.141 72.1866C211.316 72.2503 211.427 72.4014 211.474 72.64C211.522 72.8627 211.546 73.2445 211.546 73.7854V75.0977C211.546 75.6704 211.514 76.1159 211.45 76.434C211.403 76.7522 211.268 76.9987 211.046 77.1737C210.84 77.3487 210.515 77.4362 210.072 77.4362C209.422 77.4362 208.907 77.1896 208.526 76.6965C208.146 76.2033 207.956 75.5909 207.956 74.8591C207.956 74.3342 208.003 73.9126 208.099 73.5945C208.194 73.1649 208.431 72.807 208.812 72.5207C209.192 72.2184 209.691 72.0673 210.309 72.0673ZM208.812 74.1433C208.717 74.4614 208.669 74.8591 208.669 75.3364C208.669 76.5772 209.137 77.1976 210.072 77.1976C210.468 77.1976 210.753 77.1101 210.927 76.9351C211.102 76.7601 211.205 76.5215 211.237 76.2193C211.284 75.917 211.308 75.4557 211.308 74.8353V74.2149L211.332 73.499C211.332 73.2445 211.292 73.0615 211.213 72.9502C211.149 72.8388 211.007 72.7832 210.785 72.7832C210.23 72.7832 209.786 72.9104 209.454 73.1649C209.121 73.4195 208.907 73.7376 208.812 74.1194V74.1433Z" fill="black"/>
<path d="M220.569 69.3948C221.346 68.9176 222.186 68.6789 223.089 68.6789C223.596 68.6789 224.088 68.7664 224.563 68.9414C225.038 69.1164 225.395 69.3868 225.633 69.7527L225.918 69.9675C226.33 70.2856 226.536 71.6219 226.536 73.9762C226.536 74.5967 226.52 75.5273 226.489 76.7681C226.457 77.9771 226.441 78.8599 226.441 79.4167C226.441 80.053 226.457 80.7053 226.489 81.3734C225.918 81.4529 225.252 81.4927 224.492 81.4927H223.065C223.049 81.3813 223.042 81.2223 223.042 81.0155H222.59C222.542 80.5223 222.519 79.5599 222.519 78.1282V76.9351C222.519 76.0125 222.503 75.2966 222.471 74.7875C222.439 74.2785 222.352 73.849 222.21 73.499C222.083 73.4513 221.916 73.4274 221.71 73.4274C221.235 73.4274 220.902 73.5865 220.712 73.9047C220.538 74.2228 220.45 74.8353 220.45 75.742C220.45 76.1715 220.466 76.7681 220.498 77.5316C220.53 78.327 220.545 78.9077 220.545 79.2736C220.545 79.9576 220.514 80.5541 220.45 81.0632V81.3257C219.896 81.4688 219.436 81.5404 219.072 81.5404C218.85 81.5404 218.675 81.5325 218.549 81.5166L217.978 81.4927H217.717C217.479 81.4927 217.249 81.5086 217.027 81.5404V81.0155L216.552 81.0632L216.528 76.5533C216.496 74.5489 216.48 73.0297 216.48 71.9957C216.48 71.1526 216.496 70.0152 216.528 68.5835C216.908 68.6312 217.265 68.6551 217.598 68.6551C217.724 68.6551 217.93 68.6312 218.216 68.5835C218.517 68.5358 218.921 68.5119 219.428 68.5119C219.856 68.5119 220.078 68.6074 220.094 68.7982C220.094 68.8937 220.165 68.9812 220.308 69.0607C220.466 69.1244 220.553 69.1959 220.569 69.2755V69.3948ZM219.571 68.7267C219.127 68.7267 218.628 68.7664 218.073 68.846C217.82 68.8778 217.661 68.8937 217.598 68.8937H217.312C217.106 68.8937 216.924 68.8778 216.766 68.846C216.734 69.3391 216.718 70.0629 216.718 71.0174V72.473C216.718 73.4433 216.734 74.8512 216.766 76.6965L216.789 80.8007C216.98 80.7848 217.233 80.7768 217.55 80.7768L218.691 80.8007C219.024 80.8007 219.373 80.753 219.737 80.6575V80.5621C219.801 80.0371 219.832 79.4485 219.832 78.7963C219.832 78.3827 219.816 77.7782 219.785 76.9828C219.753 76.1874 219.737 75.5829 219.737 75.1693C219.737 74.2149 219.856 73.5706 220.094 73.2365C220.331 72.8866 220.712 72.7116 221.235 72.7116C221.805 72.7116 222.17 72.8866 222.328 73.2365C222.503 73.5706 222.606 73.9524 222.637 74.3819C222.669 74.7955 222.693 75.0818 222.709 75.2409C222.74 75.4795 222.756 75.8613 222.756 76.3863V79.7508C222.756 80.228 222.772 80.57 222.804 80.7768L224.183 80.8007C224.753 80.8007 225.284 80.7609 225.775 80.6814C225.744 80.0769 225.728 79.5758 225.728 79.1781C225.728 78.6213 225.744 77.7225 225.775 76.4817C225.807 75.1773 225.823 74.2228 225.823 73.6183C225.823 72.5207 225.783 71.6378 225.704 70.9697C225.625 70.2856 225.482 69.8482 225.276 69.6573C224.737 69.1641 224 68.9176 223.065 68.9176C222.558 68.9176 222.107 68.9971 221.71 69.1562C221.314 69.3153 220.942 69.4982 220.593 69.705C220.244 69.8959 220.015 70.0232 219.904 70.0868L219.927 69.538C219.927 68.9971 219.809 68.7267 219.571 68.7267Z" fill="black"/>
<path d="M237.357 65.9826C237.357 67.4302 237.389 69.538 237.452 72.3059C237.468 72.99 237.484 73.8331 237.5 74.8353C237.516 75.8375 237.524 76.9908 237.524 78.2952C237.524 79.7587 237.516 80.8007 237.5 81.4211L236.073 81.445C235.757 81.4609 235.289 81.4688 234.671 81.4688C234.386 81.4688 234.164 81.437 234.005 81.3734C233.863 81.3098 233.791 81.1825 233.791 80.9916V80.9439L233.482 80.92L233.435 80.8723C233.023 81.2223 232.508 81.3973 231.89 81.3973C231.192 81.3973 230.574 81.27 230.035 81.0155C229.512 80.7609 229.076 80.4269 228.728 80.0133C227.476 79.0111 226.85 76.9828 226.85 73.9285C226.85 72.7036 227.024 71.6219 227.373 70.6833C227.721 69.7448 228.244 69.1403 228.942 68.8698C229.528 68.6312 230.265 68.5119 231.153 68.5119C232.103 68.5119 232.832 68.6471 233.34 68.9176L233.292 66.4837C233.292 66.1178 233.308 65.6803 233.34 65.1713L233.411 64.2168V63.9543C233.411 63.8748 233.601 63.7952 233.982 63.7157C234.378 63.6362 234.806 63.5964 235.265 63.5964C235.883 63.5964 236.422 63.6441 236.882 63.7396V64.1452L237.357 64.2168V65.9826ZM236.787 80.7053C236.802 80.1485 236.81 79.2815 236.81 78.1043C236.81 76.8158 236.802 75.6704 236.787 74.6682C236.771 73.6501 236.755 72.7911 236.739 72.0912C236.676 69.2278 236.644 67.0325 236.644 65.5053V63.9305C236.311 63.8668 235.852 63.835 235.265 63.835C234.869 63.835 234.497 63.8509 234.148 63.8827C233.815 63.8986 233.649 63.9225 233.649 63.9543V64.2168L233.601 65.052C233.569 65.3542 233.554 65.8314 233.554 66.4837V67.5813C233.554 68.2971 233.562 68.9016 233.577 69.3948C233.514 69.2198 233.245 69.0687 232.769 68.9414C232.294 68.8142 231.747 68.7505 231.129 68.7505C230.416 68.7505 229.71 68.8619 229.013 69.0846C228.347 69.3232 227.856 69.8879 227.539 70.7788C227.238 71.6696 227.088 72.7195 227.088 73.9285C227.119 75.2966 227.23 76.4499 227.42 77.3885C227.626 78.327 228.046 79.1145 228.68 79.7508C229.33 80.3712 230.281 80.6814 231.533 80.6814C232.341 80.6814 232.928 80.3314 233.292 79.6315C233.308 79.5678 233.34 79.536 233.387 79.536C233.451 79.536 233.506 79.719 233.554 80.0849C233.601 80.4507 233.609 80.6496 233.577 80.6814C233.942 80.7291 234.346 80.753 234.79 80.753L235.836 80.7291C236.058 80.7132 236.375 80.7053 236.787 80.7053ZM232.222 71.5185C232.698 71.5185 233.031 71.5821 233.221 71.7094C233.411 71.8207 233.53 72.0514 233.577 72.4014C233.641 72.7513 233.672 73.3717 233.672 74.2626C233.672 75.058 233.633 75.6943 233.554 76.1715C233.49 76.6488 233.332 77.0306 233.078 77.3169C232.84 77.5873 232.468 77.7225 231.961 77.7225C231.311 77.7225 230.788 77.4123 230.392 76.7919C229.996 76.1715 229.798 75.4398 229.798 74.5966C229.798 73.9762 229.853 73.5149 229.964 73.2127C230.138 72.0832 230.891 71.5185 232.222 71.5185ZM233.435 73.3558C233.435 72.9263 233.387 72.632 233.292 72.473C233.213 72.3139 233.015 72.2343 232.698 72.2343C231.493 72.2343 230.82 72.7275 230.677 73.7138L230.653 73.7615C230.558 73.9842 230.511 74.3183 230.511 74.7637C230.511 76.5772 230.994 77.4839 231.961 77.4839C232.405 77.4839 232.729 77.3567 232.936 77.1021C233.157 76.8317 233.292 76.4817 233.34 76.0522C233.403 75.6068 233.435 75.0103 233.435 74.2626V73.3558Z" fill="black"/>
<path d="M253.501 69.2993C253.532 69.5539 253.548 69.7527 253.548 69.8959V70.1345C253.532 70.564 253.524 71.1844 253.524 71.9957L253.548 74.6682C253.564 75.2727 253.572 76.1715 253.572 77.3646C253.572 78.3032 253.548 79.2656 253.501 80.2519V80.4189C253.501 80.753 253.477 80.9995 253.429 81.1586C253.382 81.3177 253.239 81.4211 253.001 81.4688H252.669C252.447 81.4688 252.162 81.4529 251.813 81.4211L251.123 81.3973C251.012 81.3973 250.846 81.4132 250.624 81.445L250.101 81.4688C249.848 81.4052 249.681 81.2461 249.602 80.9916C249.396 80.9121 249.269 80.8246 249.222 80.7291C248.398 81.2382 247.581 81.4927 246.773 81.4927C245.933 81.4927 245.188 81.1268 244.538 80.3951C243.905 79.6633 243.413 78.7486 243.065 77.651C242.732 76.5374 242.565 75.4477 242.565 74.3819C242.565 73.1729 242.771 72.1389 243.183 71.2799C243.596 70.4049 244.158 69.7448 244.871 69.2993C245.6 68.8539 246.417 68.6312 247.32 68.6312C247.764 68.6312 248.104 68.663 248.342 68.7267C248.596 68.7903 248.825 68.9494 249.031 69.2039C249.047 69.1244 249.063 68.9971 249.079 68.8221C249.095 68.6471 249.134 68.5358 249.198 68.488C249.261 68.4403 249.364 68.4165 249.507 68.4165C249.65 68.4165 249.776 68.4324 249.887 68.4642C250.014 68.4801 250.133 68.488 250.244 68.488H250.458C250.87 68.488 251.654 68.5278 252.811 68.6074L253.025 68.8221L253.049 69.0846H253.287L253.501 69.2993ZM250.196 68.7267L249.554 68.7028C249.396 68.7028 249.301 68.8062 249.269 69.013C249.237 69.2039 249.222 69.4823 249.222 69.8482V69.9675C249.079 69.6175 248.897 69.363 248.675 69.2039C248.453 69.0448 248.207 68.9494 247.938 68.9176C247.669 68.8857 247.288 68.8698 246.797 68.8698C246.052 68.8857 245.371 69.1403 244.752 69.6334C244.15 70.1106 243.675 70.7629 243.326 71.5901C242.977 72.4173 242.803 73.3479 242.803 74.3819C242.803 75.3205 242.93 76.2829 243.183 77.2692C243.437 78.2555 243.825 79.0906 244.348 79.7747C244.887 80.4428 245.537 80.7768 246.298 80.7768C246.836 80.7768 247.391 80.6496 247.962 80.3951C248.548 80.1246 249.039 79.7906 249.436 79.3929C249.436 79.4883 249.42 79.6235 249.388 79.7985C249.356 79.9576 249.341 80.1008 249.341 80.228C249.341 80.4985 249.436 80.6734 249.626 80.753C249.753 80.753 249.927 80.7371 250.149 80.7053L250.648 80.6814L251.432 80.7053C251.781 80.7371 252.035 80.753 252.193 80.753H252.478C252.605 80.7212 252.684 80.6575 252.716 80.5621C252.764 80.4507 252.788 80.2996 252.788 80.1087V79.7747C252.851 78.8361 252.883 77.7941 252.883 76.6488L252.859 74.024C252.827 72.8468 252.811 71.956 252.811 71.3515C252.811 70.6038 252.819 70.0391 252.835 69.6573V69.4187C252.835 69.2914 252.819 69.1005 252.788 68.846C252.344 68.8142 251.567 68.7744 250.458 68.7267H250.196ZM248.081 72.0673C248.477 72.0673 248.754 72.1071 248.913 72.1866C249.087 72.2503 249.198 72.4014 249.245 72.64C249.293 72.8627 249.317 73.2445 249.317 73.7854V75.0977C249.317 75.6704 249.285 76.1159 249.222 76.434C249.174 76.7522 249.039 76.9987 248.818 77.1737C248.611 77.3487 248.287 77.4362 247.843 77.4362C247.193 77.4362 246.678 77.1896 246.298 76.6965C245.917 76.2033 245.727 75.5909 245.727 74.8591C245.727 74.3342 245.775 73.9126 245.87 73.5945C245.965 73.1649 246.203 72.807 246.583 72.5207C246.963 72.2184 247.462 72.0673 248.081 72.0673ZM246.583 74.1433C246.488 74.4614 246.44 74.8591 246.44 75.3364C246.44 76.5772 246.908 77.1976 247.843 77.1976C248.239 77.1976 248.524 77.1101 248.699 76.9351C248.873 76.7601 248.976 76.5215 249.008 76.2193C249.055 75.917 249.079 75.4557 249.079 74.8353V74.2149L249.103 73.499C249.103 73.2445 249.063 73.0615 248.984 72.9502C248.921 72.8388 248.778 72.7832 248.556 72.7832C248.001 72.7832 247.558 72.9104 247.225 73.1649C246.892 73.4195 246.678 73.7376 246.583 74.1194V74.1433Z" fill="black"/>
<path d="M269.566 64.7656C269.375 64.6543 269.13 64.5827 268.829 64.5509C268.528 64.519 268.211 64.5111 267.878 64.527C267.545 64.5429 267.212 64.5747 266.879 64.6224C266.562 64.6543 266.301 64.6781 266.095 64.694C266.047 66.5393 266.016 68.4483 266 70.4208C266 72.3934 265.96 74.3342 265.881 76.2431C265.802 76.609 265.627 76.8953 265.358 77.1021C265.088 77.3089 264.795 77.4203 264.478 77.4362C264.161 77.4521 263.852 77.3726 263.551 77.1976C263.266 77.0226 263.068 76.7442 262.957 76.3624C262.64 72.4014 262.569 68.496 262.743 64.6463V64.6224C262.505 64.5588 262.244 64.519 261.958 64.5031C261.673 64.4713 261.38 64.4554 261.079 64.4554C260.778 64.4554 260.477 64.4634 260.176 64.4793C259.89 64.4952 259.629 64.5031 259.391 64.5031H259.367L259.391 64.527C259.423 66.6268 259.415 68.7426 259.367 70.8742C259.32 73.0059 259.296 75.1216 259.296 77.2215C259.328 77.9532 259.534 78.5816 259.914 79.1065C260.31 79.6156 260.794 80.0292 261.364 80.3473C261.951 80.6496 262.6 80.8564 263.313 80.9677C264.027 81.095 264.716 81.1268 265.382 81.0632C266.523 80.9518 267.426 80.5303 268.092 79.7985C268.757 79.0668 269.154 78.1759 269.28 77.126C269.502 75.0739 269.629 73.0138 269.661 70.9458C269.692 68.8619 269.661 66.8018 269.566 64.7656Z" fill="black"/>
<path d="M275.126 63.9543C274.412 63.9702 273.866 63.9702 273.485 63.9543C273.121 63.9225 272.796 63.8986 272.511 63.8827C272.4 63.8827 272.225 63.8748 271.988 63.8589C271.766 63.8271 271.615 63.8191 271.536 63.835V63.8827C271.393 65.219 271.322 66.5871 271.322 67.9869C271.338 69.3709 271.362 70.7788 271.393 72.2105C271.441 73.6263 271.473 75.058 271.488 76.5056C271.504 77.9532 271.457 79.3929 271.346 80.8246C271.504 80.7768 271.797 80.7609 272.225 80.7768C272.653 80.8087 273.097 80.8325 273.557 80.8484C274.032 80.8643 274.468 80.8564 274.864 80.8246C275.276 80.8087 275.546 80.7371 275.672 80.6098C275.593 79.2576 275.546 77.8896 275.53 76.5056C275.514 75.1216 275.514 73.7376 275.53 72.3536C275.561 70.9538 275.593 69.5618 275.625 68.1778C275.672 66.7939 275.696 65.4178 275.696 64.0498V63.9543H275.126Z" fill="black"/>
<path d="M290.696 66.0064C290.41 65.5451 290.03 65.1315 289.555 64.7656C289.095 64.3838 288.612 64.1293 288.104 64.002C287.645 64.0179 287.169 64.0179 286.678 64.002C286.203 63.9861 285.719 63.9782 285.228 63.9782C284.737 63.9623 284.245 63.9782 283.754 64.0259C283.279 64.0577 282.819 64.1293 282.375 64.2407C282.359 64.2566 282.344 64.2725 282.328 64.2884C282.328 64.3043 282.32 64.3202 282.304 64.3361C282.336 65.7201 282.336 67.12 282.304 68.5358C282.288 69.9357 282.28 71.3276 282.28 72.7116C282.28 74.0956 282.304 75.4636 282.351 76.8158C282.399 78.1521 282.51 79.4485 282.684 80.7053C282.7 80.6893 282.708 80.6814 282.708 80.6814C283.706 80.6814 284.737 80.6814 285.798 80.6814C286.86 80.6655 287.914 80.6416 288.96 80.6098C289.562 79.8621 290.133 79.0667 290.672 78.2236C291.226 77.3805 291.662 76.4897 291.979 75.5511C291.979 75.5352 291.979 75.5273 291.979 75.5273C291.995 75.5273 292.003 75.5193 292.003 75.5034C292.146 74.7716 292.225 74.0319 292.241 73.2843C292.272 72.5207 292.304 71.7651 292.336 71.0174C292.32 70.7629 292.296 70.5163 292.265 70.2777C292.249 70.0232 292.201 69.7686 292.122 69.5141C291.979 68.8778 291.789 68.2733 291.551 67.7006C291.329 67.112 291.044 66.5473 290.696 66.0064ZM288.509 74.6682C288.413 74.8114 288.302 74.9546 288.176 75.0977C288.065 75.225 287.93 75.3364 287.772 75.4318C287.692 75.4636 287.621 75.5034 287.558 75.5511C287.494 75.5829 287.423 75.5909 287.344 75.575C287.058 75.6068 286.757 75.6307 286.44 75.6466C286.139 75.6625 285.901 75.5909 285.727 75.4318C285.695 74.8909 285.68 74.3501 285.68 73.8092C285.68 73.2524 285.688 72.7116 285.703 72.1866C285.719 71.6458 285.727 71.1287 285.727 70.6356C285.727 70.1425 285.711 69.6811 285.68 69.2516V69.1562H285.751C286.036 69.0925 286.337 69.0687 286.654 69.0846C286.971 69.0846 287.264 69.1005 287.534 69.1323C287.803 69.2278 288.025 69.3709 288.199 69.5618C288.374 69.7368 288.516 69.9436 288.627 70.1822C288.754 70.4208 288.849 70.6754 288.913 70.9458C288.976 71.2003 289.031 71.4469 289.079 71.6855C289.206 72.2741 289.206 72.815 289.079 73.3081C288.968 73.8013 288.778 74.2546 288.509 74.6682Z" fill="black"/>
<path d="M303.828 77.4839C302.75 77.5157 301.704 77.5078 300.69 77.4601C299.676 77.3964 298.646 77.3646 297.6 77.3646L297.576 77.3408C297.544 76.959 297.512 76.4817 297.481 75.909C297.465 75.3364 297.497 74.8194 297.576 74.358C297.655 74.2944 297.806 74.2546 298.027 74.2387C298.249 74.2228 298.495 74.2149 298.764 74.2149C299.05 74.2149 299.343 74.2149 299.644 74.2149C299.945 74.199 300.215 74.1592 300.452 74.0956C300.436 73.507 300.444 72.9422 300.476 72.4014C300.508 71.8605 300.484 71.3196 300.405 70.7788V70.7549C299.913 70.739 299.422 70.731 298.931 70.731C298.44 70.731 297.956 70.7151 297.481 70.6833L297.457 70.6595C297.346 70.2299 297.314 69.7766 297.362 69.2993C297.425 68.8062 297.449 68.329 297.433 67.8676L297.457 67.8438H297.528C298.051 67.7961 298.574 67.7722 299.097 67.7722C299.62 67.7722 300.143 67.7802 300.666 67.7961C301.189 67.7961 301.704 67.7881 302.211 67.7722C302.734 67.7404 303.25 67.6688 303.757 67.5574V67.5336C303.757 66.9768 303.772 66.4121 303.804 65.8394C303.852 65.2667 303.836 64.702 303.757 64.1452C303.757 64.1293 303.598 64.1134 303.281 64.0975C302.964 64.0816 302.544 64.0736 302.021 64.0736C301.498 64.0736 300.896 64.0816 300.215 64.0975C299.533 64.1134 298.828 64.1293 298.099 64.1452C297.37 64.1611 296.641 64.185 295.912 64.2168C295.199 64.2327 294.533 64.2566 293.915 64.2884C293.836 65.6565 293.788 67.0166 293.772 68.3687C293.756 69.7209 293.756 71.0731 293.772 72.4252C293.788 73.7774 293.812 75.1375 293.844 76.5056C293.875 77.8578 293.891 79.2258 293.891 80.6098C295.428 80.7371 297.029 80.7768 298.693 80.7291C300.373 80.6655 302.021 80.6416 303.638 80.6575C303.765 80.1803 303.836 79.6712 303.852 79.1304C303.868 78.5736 303.86 78.0407 303.828 77.5316V77.4839Z" fill="black"/>
<path d="M315.273 69.4187C315.495 68.2256 315.4 67.2393 314.988 66.4598C314.576 65.6803 313.989 65.0917 313.229 64.694C312.848 64.519 312.428 64.3759 311.969 64.2645C311.525 64.1532 311.065 64.0895 310.59 64.0736C310.13 64.0418 309.671 64.0577 309.211 64.1213C308.751 64.1691 308.332 64.2725 307.951 64.4315C307.19 64.7497 306.541 65.2349 306.002 65.8871C305.479 66.5393 305.122 67.2631 304.932 68.0585C304.742 68.8539 304.75 69.6732 304.956 70.5163C305.178 71.3594 305.653 72.1309 306.382 72.8309C306.604 73.0218 306.85 73.1888 307.119 73.332C307.389 73.4752 307.682 73.5786 307.999 73.6422C308.332 73.7058 308.688 73.7774 309.068 73.8569C309.449 73.9206 309.798 74.024 310.114 74.1671C310.447 74.3103 310.733 74.5012 310.97 74.7398C311.208 74.9625 311.351 75.2648 311.398 75.6466C311.493 76.2033 311.382 76.6169 311.065 76.8874C310.764 77.1578 310.4 77.301 309.972 77.3169C309.56 77.3169 309.164 77.1896 308.783 76.9351C308.419 76.6806 308.221 76.2988 308.189 75.7897C307.65 75.8056 307.048 75.7977 306.382 75.7659C305.717 75.7182 305.106 75.7341 304.552 75.8136V75.9568C304.504 76.7204 304.639 77.4044 304.956 78.0089C305.273 78.5975 305.701 79.0986 306.24 79.5122C306.778 79.9258 307.389 80.2519 308.07 80.4905C308.767 80.7132 309.465 80.8325 310.162 80.8484C310.653 80.8643 311.129 80.8246 311.588 80.7291C312.064 80.6178 312.5 80.4507 312.896 80.228C313.308 80.0053 313.672 79.719 313.989 79.369C314.306 79.019 314.56 78.5975 314.75 78.1043C314.94 77.6907 315.075 77.2612 315.154 76.8158C315.249 76.3545 315.281 75.9011 315.249 75.4557C315.233 75.0103 315.154 74.5807 315.012 74.1671C314.869 73.7376 314.655 73.3399 314.37 72.9741C313.91 72.29 313.316 71.7253 312.587 71.2799C311.874 70.8344 311.097 70.564 310.257 70.4686C309.924 70.4208 309.615 70.3334 309.33 70.2061C309.045 70.0788 308.839 69.8243 308.712 69.4425C308.696 69.3312 308.68 69.2278 308.664 69.1323C308.664 69.021 308.68 68.9096 308.712 68.7982C308.775 68.3528 308.981 68.0506 309.33 67.8915C309.694 67.7324 310.067 67.6926 310.447 67.7722C310.828 67.8517 311.153 68.0347 311.422 68.321C311.691 68.6074 311.779 68.9653 311.683 69.3948C312.238 69.5539 312.832 69.6255 313.466 69.6096C314.1 69.5777 314.695 69.5141 315.249 69.4187H315.273Z" fill="black"/>
<path d="M320.511 63.9543C319.798 63.9702 319.251 63.9702 318.871 63.9543C318.507 63.9225 318.182 63.8986 317.896 63.8827C317.785 63.8827 317.611 63.8748 317.373 63.8589C317.152 63.8271 317.001 63.8191 316.922 63.835V63.8827C316.779 65.219 316.708 66.5871 316.708 67.9869C316.724 69.3709 316.747 70.7788 316.779 72.2105C316.827 73.6263 316.858 75.058 316.874 76.5056C316.89 77.9532 316.842 79.3929 316.732 80.8246C316.89 80.7768 317.183 80.7609 317.611 80.7768C318.039 80.8087 318.483 80.8325 318.942 80.8484C319.418 80.8643 319.854 80.8564 320.25 80.8246C320.662 80.8087 320.931 80.7371 321.058 80.6098C320.979 79.2576 320.931 77.8896 320.915 76.5056C320.9 75.1216 320.9 73.7376 320.915 72.3536C320.947 70.9538 320.979 69.5618 321.011 68.1778C321.058 66.7939 321.082 65.4178 321.082 64.0498V63.9543H320.511Z" fill="black"/>
<path d="M327.756 72.4252C327.725 72.4411 327.709 72.4491 327.709 72.4491C327.693 72.4491 327.685 72.457 327.685 72.473V72.4968C327.717 72.7832 327.733 73.0218 327.733 73.2127C327.733 73.4036 327.725 73.5945 327.709 73.7854C327.709 73.9603 327.709 74.1433 327.709 74.3342C327.725 74.5251 327.748 74.7478 327.78 75.0023C327.859 75.0341 327.97 75.058 328.113 75.0739C328.271 75.0739 328.438 75.0739 328.612 75.0739C328.802 75.058 328.977 75.05 329.135 75.05C329.309 75.0341 329.444 75.0341 329.539 75.05C329.587 75.0659 329.611 75.1375 329.611 75.2648C329.626 75.392 329.626 75.5352 329.611 75.6943C329.611 75.8534 329.595 76.0125 329.563 76.1715C329.547 76.3147 329.531 76.4181 329.516 76.4817C329.452 76.7044 329.357 76.8874 329.23 77.0305C329.103 77.1578 328.953 77.2612 328.779 77.3408C328.557 77.4203 328.311 77.4839 328.042 77.5316C327.788 77.5794 327.542 77.5873 327.305 77.5555C327.083 77.5078 326.901 77.4362 326.758 77.3408C326.457 77.1021 326.259 76.776 326.164 76.3624C326.069 75.9488 326.005 75.567 325.973 75.2171C325.926 74.6285 325.894 74.0081 325.878 73.3558C325.863 72.7036 325.87 72.0753 325.902 71.4708C325.934 70.8504 325.981 70.2697 326.045 69.7289C326.124 69.188 326.219 68.7267 326.33 68.3449C326.362 68.2176 326.401 68.0904 326.449 67.9631C326.512 67.8199 326.56 67.7324 326.592 67.7006C326.782 67.5097 327.004 67.4143 327.257 67.4143C327.511 67.4143 327.772 67.4222 328.042 67.4381C328.279 67.4381 328.485 67.5177 328.66 67.6767C328.834 67.8199 328.985 67.9949 329.111 68.2017C329.254 68.3926 329.365 68.6074 329.444 68.846C329.539 69.0687 329.611 69.2596 329.658 69.4187C329.896 69.4505 330.102 69.4743 330.276 69.4902C330.451 69.5061 330.617 69.5141 330.775 69.5141C330.95 69.5141 331.116 69.5141 331.275 69.5141C331.449 69.4982 331.655 69.4902 331.893 69.4902C332.146 69.4743 332.329 69.4664 332.44 69.4664C332.55 69.4664 332.622 69.4425 332.654 69.3948L332.677 69.2516C332.788 68.2812 332.701 67.4461 332.416 66.7461C332.13 66.0303 331.703 65.4576 331.132 65.0281C330.562 64.5986 329.88 64.3043 329.088 64.1452C328.295 63.9702 327.463 63.9384 326.592 64.0498C326.164 64.1134 325.752 64.2088 325.355 64.3361C324.959 64.4634 324.603 64.6622 324.286 64.9326C323.826 65.2508 323.493 65.6565 323.287 66.1496C323.097 66.6427 322.962 67.1518 322.883 67.6767C322.804 68.1858 322.748 68.7108 322.717 69.2516C322.685 69.7766 322.661 70.2936 322.645 70.8026C322.629 71.3912 322.622 71.9162 322.622 72.3775C322.637 72.8229 322.653 73.2524 322.669 73.666C322.701 74.0637 322.732 74.4694 322.764 74.883C322.796 75.2966 322.835 75.7579 322.883 76.267C322.915 76.5851 322.954 76.9033 323.002 77.2215C323.065 77.5237 323.121 77.7623 323.168 77.9373C323.358 78.6213 323.62 79.194 323.953 79.6553C324.286 80.1167 324.769 80.4826 325.403 80.753C325.783 80.9121 326.179 81.0155 326.592 81.0632C327.019 81.1109 327.455 81.1109 327.899 81.0632C328.343 81.0314 328.779 80.9677 329.206 80.8723C329.634 80.7928 330.046 80.6973 330.443 80.586C331.045 80.3632 331.552 80.0371 331.964 79.6076C332.376 79.1781 332.622 78.5577 332.701 77.7464C332.859 76.8874 332.923 75.9886 332.891 75.05C332.859 74.0956 332.796 73.1968 332.701 72.3536L332.677 72.3298H332.63C332.471 72.3298 332.162 72.3139 331.703 72.2821C331.259 72.2343 330.775 72.2025 330.252 72.1866C329.729 72.1707 329.23 72.1787 328.755 72.2105C328.295 72.2264 327.962 72.298 327.756 72.4252Z" fill="black"/>
<path d="M343.504 80.8484C343.774 80.8484 343.964 80.8325 344.075 80.8007C344.186 80.7689 344.257 80.745 344.289 80.7291V80.2519C344.289 79.9337 344.281 79.6156 344.265 79.2974C344.265 78.9793 344.265 78.6611 344.265 78.3429C344.265 77.8975 344.265 77.4601 344.265 77.0305C344.281 76.601 344.289 76.1556 344.289 75.6943C344.289 75.0103 344.289 74.3262 344.289 73.6422C344.289 72.9581 344.281 72.2821 344.265 71.6139V63.9305C343.805 63.835 343.282 63.7873 342.696 63.7873C342.094 63.7873 341.523 63.835 340.984 63.9305C340.969 64.3281 340.953 64.702 340.937 65.052C340.937 65.386 340.937 65.7201 340.937 66.0541C340.937 66.6268 340.945 67.1916 340.961 67.7483C340.992 68.2892 341.008 68.8778 341.008 69.5141C341.008 69.7845 340.992 70.0629 340.961 70.3493C340.929 70.6356 340.889 70.7947 340.842 70.8265C340.826 70.8265 340.77 70.739 340.675 70.564C340.58 70.3731 340.461 70.1504 340.319 69.8959C340.192 69.6255 340.049 69.3312 339.891 69.013C339.732 68.6789 339.582 68.3687 339.439 68.0824C339.297 67.7801 339.17 67.5177 339.059 67.295C338.948 67.0723 338.877 66.9211 338.845 66.8416C338.702 66.5075 338.575 66.2371 338.465 66.0303C338.369 65.8076 338.274 65.6087 338.179 65.4337C338.1 65.2588 338.013 65.0758 337.918 64.8849C337.823 64.694 337.72 64.4554 337.609 64.1691C337.609 64.1373 337.522 64.1054 337.347 64.0736C337.189 64.0418 336.999 64.0179 336.777 64.002C336.555 63.9702 336.333 63.9543 336.111 63.9543C335.889 63.9384 335.731 63.9305 335.636 63.9305C335.445 63.9305 335.255 63.9384 335.065 63.9543C334.891 63.9702 334.724 63.9941 334.566 64.0259C334.487 65.044 334.431 66.0939 334.399 67.1757C334.368 68.2415 334.352 69.3232 334.352 70.4208C334.352 71.9162 334.36 73.3479 334.376 74.716C334.407 76.084 334.423 77.5237 334.423 79.0349V80.7053C334.788 80.7053 335.16 80.7291 335.541 80.7768C335.937 80.8246 336.325 80.8484 336.705 80.8484C336.88 80.8484 337.054 80.8405 337.228 80.8246C337.403 80.8087 337.577 80.7768 337.751 80.7291C337.736 80.4587 337.728 80.1564 337.728 79.8224C337.728 79.4724 337.728 79.1145 337.728 78.7486C337.728 78.0805 337.728 77.3885 337.728 76.6726C337.743 75.9568 337.759 75.3046 337.775 74.716C337.791 74.1274 337.807 73.6422 337.823 73.2604C337.854 72.8786 337.878 72.6877 337.894 72.6877C337.926 72.6877 337.965 72.7673 338.013 72.9263C338.076 73.0695 338.14 73.2286 338.203 73.4036L338.441 74.1194C338.805 75.1375 339.241 76.2033 339.748 77.3169C340.271 78.4145 340.794 79.5519 341.317 80.7291C341.634 80.7291 341.999 80.745 342.411 80.7768C342.823 80.8246 343.187 80.8484 343.504 80.8484Z" fill="black"/>
<path d="M356.271 77.4839C355.193 77.5157 354.147 77.5078 353.133 77.4601C352.119 77.3964 351.089 77.3646 350.043 77.3646L350.019 77.3408C349.987 76.959 349.956 76.4817 349.924 75.909C349.908 75.3364 349.94 74.8194 350.019 74.358C350.098 74.2944 350.249 74.2546 350.471 74.2387C350.693 74.2228 350.938 74.2149 351.208 74.2149C351.493 74.2149 351.786 74.2149 352.087 74.2149C352.388 74.199 352.658 74.1592 352.896 74.0956C352.88 73.507 352.888 72.9422 352.919 72.4014C352.951 71.8605 352.927 71.3196 352.848 70.7788V70.7549C352.357 70.739 351.865 70.731 351.374 70.731C350.883 70.731 350.399 70.7151 349.924 70.6833L349.9 70.6595C349.789 70.2299 349.758 69.7766 349.805 69.2993C349.868 68.8062 349.892 68.329 349.876 67.8676L349.9 67.8438H349.971C350.494 67.7961 351.017 67.7722 351.54 67.7722C352.063 67.7722 352.586 67.7802 353.109 67.7961C353.632 67.7961 354.147 67.7881 354.655 67.7722C355.178 67.7404 355.693 67.6688 356.2 67.5574V67.5336C356.2 66.9768 356.216 66.4121 356.247 65.8394C356.295 65.2667 356.279 64.702 356.2 64.1452C356.2 64.1293 356.041 64.1134 355.724 64.0975C355.407 64.0816 354.987 64.0736 354.464 64.0736C353.941 64.0736 353.339 64.0816 352.658 64.0975C351.976 64.1134 351.271 64.1293 350.542 64.1452C349.813 64.1611 349.084 64.185 348.355 64.2168C347.642 64.2327 346.976 64.2566 346.358 64.2884C346.279 65.6565 346.231 67.0166 346.215 68.3687C346.2 69.7209 346.2 71.0731 346.215 72.4252C346.231 73.7774 346.255 75.1375 346.287 76.5056C346.318 77.8578 346.334 79.2258 346.334 80.6098C347.872 80.7371 349.472 80.7768 351.136 80.7291C352.816 80.6655 354.464 80.6416 356.081 80.6575C356.208 80.1803 356.279 79.6712 356.295 79.1304C356.311 78.5736 356.303 78.0407 356.271 77.5316V77.4839Z" fill="black"/>
<path d="M368.976 80.6575C368.738 80.0053 368.445 79.377 368.097 78.7725C367.748 78.1521 367.383 77.5476 367.003 76.959C366.623 76.3704 366.234 75.7897 365.838 75.2171C365.442 74.6285 365.078 74.0399 364.745 73.4513V73.4274H364.864C365.624 73.3797 366.25 73.1649 366.742 72.7832C367.249 72.4014 367.653 71.9241 367.954 71.3515C368.445 70.5243 368.675 69.6732 368.643 68.7982C368.628 67.9074 368.414 67.0961 368.002 66.3643C367.59 65.6326 367.011 65.0201 366.266 64.527C365.521 64.0339 364.681 63.7634 363.746 63.7157C362.589 63.5884 361.48 63.5805 360.418 63.6918C359.356 63.8032 358.382 63.9225 357.494 64.0498C357.526 64.2566 357.55 64.6543 357.565 65.2429C357.597 65.8155 357.621 66.5155 357.637 67.3427C357.653 68.154 357.668 69.0528 357.684 70.0391C357.716 71.0094 357.732 71.9957 357.732 72.9979C357.748 73.9842 357.756 74.9466 357.756 75.8852C357.756 76.8078 357.756 77.6271 357.756 78.3429C357.756 79.0588 357.748 79.6394 357.732 80.0849C357.716 80.5144 357.692 80.7291 357.661 80.7291C357.74 80.7132 357.946 80.7132 358.279 80.7291C358.627 80.745 359.016 80.745 359.443 80.7291C359.871 80.7291 360.299 80.7132 360.727 80.6814C361.171 80.6496 361.528 80.578 361.797 80.4666C361.781 80.1644 361.757 79.7587 361.726 79.2497C361.694 78.7406 361.662 78.2077 361.631 77.651C361.615 77.0783 361.607 76.5295 361.607 76.0045C361.607 75.4636 361.631 75.0103 361.678 74.6444L361.726 74.716C362.058 75.1296 362.391 75.6068 362.724 76.1477C363.057 76.6885 363.366 77.2374 363.651 77.7941C363.936 78.3509 364.198 78.8838 364.436 79.3929C364.673 79.9019 364.872 80.3394 365.03 80.7053H365.054C365.767 80.753 366.464 80.7609 367.146 80.7291C367.827 80.6814 368.445 80.6575 369 80.6575H368.976ZM360.965 67.3904C361.52 67.1677 362.066 67.0484 362.605 67.0325C363.144 67.0007 363.588 67.1438 363.936 67.462C364.158 67.637 364.317 67.8756 364.412 68.1778C364.507 68.4642 364.539 68.7585 364.507 69.0607C364.475 69.3471 364.372 69.6175 364.198 69.872C364.039 70.1106 363.81 70.2618 363.509 70.3254C363.128 70.389 362.724 70.4129 362.296 70.397C361.868 70.3811 361.472 70.3572 361.108 70.3254H361.084C361.052 70.1504 361.028 69.9357 361.012 69.6811C361.012 69.4266 361.012 69.1641 361.012 68.8937C361.012 68.6233 361.005 68.3608 360.989 68.1063C360.989 67.8358 360.981 67.5972 360.965 67.3904Z" fill="black"/>
<path d="M66.4914 25.3331C66.4914 28.0628 66.6019 30.4264 66.823 32.4237C67.0441 34.3989 67.3316 36.0856 67.6853 37.4837C68.0612 38.8597 68.4923 39.9804 68.9787 40.8459C69.4873 41.6893 70.0068 42.355 70.5375 42.8433C71.0681 43.3093 71.5987 43.6311 72.1294 43.8087C72.6821 43.964 73.2017 44.0417 73.6881 44.0417C74.2409 44.0417 74.7383 43.9751 75.1805 43.842C75.6227 43.6866 76.0207 43.5202 76.3745 43.3426C76.7282 43.1429 77.0156 42.9764 77.2367 42.8433C77.4799 42.6879 77.6679 42.6103 77.8005 42.6103C77.9774 42.6103 78.1322 42.7101 78.2648 42.9099L79.6909 45.1735C79.7572 45.3067 79.7904 45.4176 79.7904 45.5064C79.7904 45.6174 79.7462 45.7173 79.6577 45.806C79.5693 45.8726 79.4919 45.9392 79.4256 46.0058C78.7402 46.5384 77.8669 47.0821 76.8056 47.6369C75.7443 48.1918 74.5283 48.6911 73.1575 49.1349C71.8088 49.5788 70.3164 49.945 68.6803 50.2335C67.0441 50.522 65.3196 50.6663 63.5066 50.6663C61.8484 50.6663 60.1459 50.4998 58.3992 50.1669C56.6747 49.8562 54.9943 49.3236 53.3582 48.569C51.7221 47.7923 50.1744 46.7714 48.7152 45.5064C47.278 44.2414 46.0178 42.6768 44.9344 40.8126C43.851 38.9262 42.9887 36.7181 42.3476 34.1881C41.7285 31.6359 41.4189 28.6842 41.4189 25.3331C41.4189 21.982 41.7285 19.0415 42.3476 16.5115C42.9887 13.9593 43.851 11.7511 44.9344 9.88691C46.0178 8.00052 47.278 6.42483 48.7152 5.15984C50.1744 3.89484 51.7221 2.88507 53.3582 2.13051C54.9943 1.35376 56.6747 0.810039 58.3992 0.499339C60.1459 0.166446 61.8484 0 63.5066 0C65.3196 0 67.0441 0.144253 68.6803 0.43276C70.3164 0.721267 71.8088 1.08745 73.1575 1.53131C74.5283 1.97516 75.7443 2.4745 76.8056 3.02932C77.8669 3.58414 78.7402 4.12787 79.4256 4.6605C79.4919 4.72708 79.5693 4.80475 79.6577 4.89352C79.7462 4.9601 79.7904 5.04887 79.7904 5.15984C79.7904 5.24861 79.7572 5.35957 79.6909 5.49273L78.2648 7.7564C78.1322 7.95613 77.9774 8.056 77.8005 8.056C77.6679 8.056 77.4799 7.98942 77.2367 7.85627C77.0156 7.70092 76.7282 7.53447 76.3745 7.35693C76.0207 7.15719 75.6227 6.99074 75.1805 6.85759C74.7383 6.70224 74.2409 6.62456 73.6881 6.62456C73.2017 6.62456 72.6821 6.71333 72.1294 6.89088C71.5987 7.04623 71.0681 7.36802 70.5375 7.85627C70.0068 8.32232 69.4873 8.9881 68.9787 9.85362C68.4923 10.6969 68.0612 11.8177 67.6853 13.2158C67.3316 14.5918 67.0441 16.2784 66.823 18.2758C66.6019 20.251 66.4914 22.6034 66.4914 25.3331ZM60.8866 25.3331C60.8866 28.085 61.0082 30.4708 61.2514 32.4903C61.5167 34.5099 61.8705 36.252 62.3127 37.7167C62.777 39.1593 63.3076 40.3577 63.9046 41.312C64.5236 42.2663 65.1759 43.0541 65.8613 43.6755C66.5688 44.2747 67.2873 44.7408 68.017 45.0737C68.7687 45.3844 69.5094 45.6285 70.239 45.806C69.9958 45.6507 69.6641 45.4398 69.2441 45.1735C68.824 44.885 68.3597 44.4634 67.8511 43.9085C67.3647 43.3315 66.8673 42.577 66.3587 41.6449C65.8723 40.6906 65.4191 39.4811 64.999 38.0163C64.601 36.5516 64.2694 34.7873 64.0041 32.7233C63.7608 30.6372 63.6392 28.1738 63.6392 25.3331C63.6392 22.4924 63.7608 20.0401 64.0041 17.9762C64.2694 15.8901 64.601 14.1146 64.999 12.6499C65.4191 11.1852 65.8723 9.98678 66.3587 9.05468C66.8673 8.10039 67.3647 7.34583 67.8511 6.79101C68.3597 6.214 68.824 5.79233 69.2441 5.52602C69.6641 5.23751 69.9958 5.01558 70.239 4.86023C69.5094 5.05997 68.7687 5.31519 68.017 5.62589C67.2873 5.93658 66.5688 6.40263 65.8613 7.02403C65.1759 7.62324 64.5236 8.39999 63.9046 9.35428C63.3076 10.3086 62.777 11.5181 62.3127 12.9828C61.8705 14.4253 61.5167 16.1564 61.2514 18.1759C61.0082 20.1955 60.8866 22.5812 60.8866 25.3331Z" fill="black"/>
<path d="M103.603 1.5646C104.001 1.5646 104.343 1.62008 104.631 1.73104C104.918 1.81981 105.172 1.98626 105.394 2.23038C105.637 2.4745 105.858 2.7963 106.057 3.19577C106.256 3.59524 106.466 4.08348 106.687 4.6605L121.909 45.4731C122.02 45.7838 122.097 46.0612 122.142 46.3054C122.186 46.5495 122.208 46.7936 122.208 47.0377C122.208 47.8367 121.965 48.4248 121.478 48.8021C121.014 49.1793 120.517 49.368 119.986 49.368H101.182C100.607 49.368 100.12 49.3014 99.7224 49.1682C99.3465 49.0129 99.0259 48.8353 98.7606 48.6356C98.4953 48.4359 98.2852 48.225 98.1304 48.0031C97.9978 47.7812 97.9093 47.5815 97.8651 47.4039L97.5003 46.2388H88.1811L87.9489 47.2375C87.8826 47.5704 87.8052 47.87 87.7168 48.1363C87.6283 48.3804 87.5178 48.6023 87.3851 48.8021C87.2524 48.9796 87.0645 49.1239 86.8213 49.2348C86.6002 49.3236 86.3017 49.368 85.9259 49.368H82.5099C81.8024 49.368 81.4486 49.0906 81.4486 48.5357C81.4486 48.336 81.4818 48.103 81.5481 47.8367C81.6366 47.5482 81.7471 47.2153 81.8798 46.838L95.7426 4.72708C96.0742 3.68401 96.4501 2.90726 96.8702 2.39683C97.2903 1.88639 97.8872 1.60898 98.6611 1.5646H103.603ZM89.2092 42.1442H96.3727L92.6915 29.1281L89.2092 42.1442ZM103.967 5.42615C103.791 4.9601 103.569 4.67159 103.304 4.56063C103.061 4.42747 102.63 4.36089 102.011 4.36089H100.85L116.537 46.5717H118.129C118.527 46.5717 118.792 46.494 118.925 46.3386C119.079 46.1611 119.068 45.8504 118.891 45.4066L103.967 5.42615Z" fill="black"/>
<path d="M125.624 6.22509C125.624 5.44834 125.69 4.77146 125.823 4.19445C125.956 3.61743 126.21 3.14029 126.586 2.76301C126.962 2.36354 127.481 2.06393 128.144 1.8642C128.808 1.66446 129.67 1.5646 130.731 1.5646H145.523C146.805 1.5646 147.778 1.75323 148.441 2.13051C149.127 2.50779 149.602 2.98494 149.867 3.56195C150.155 4.11677 150.309 4.71598 150.332 5.35957C150.354 5.98097 150.365 6.55798 150.365 7.09061V43.9751C150.365 44.4855 150.32 45.0515 150.232 45.6729C150.144 46.2943 149.923 46.8824 149.569 47.4372C149.215 47.9698 148.673 48.4248 147.944 48.8021C147.214 49.1793 146.208 49.368 144.926 49.368H130.731C129.67 49.368 128.808 49.2681 128.144 49.0684C127.481 48.8686 126.962 48.5801 126.586 48.2029C126.21 47.8256 125.956 47.3484 125.823 46.7714C125.69 46.1944 125.624 45.5175 125.624 44.7408V6.22509ZM147.546 6.49141C147.546 6.00316 147.513 5.61479 147.446 5.32628C147.38 5.03778 147.247 4.82694 147.048 4.69379C146.849 4.53844 146.584 4.44966 146.252 4.42747C145.921 4.38309 145.49 4.36089 144.959 4.36089V46.5717C145.49 46.5717 145.921 46.5606 146.252 46.5384C146.584 46.494 146.849 46.4052 147.048 46.2721C147.247 46.1167 147.38 45.9059 147.446 45.6396C147.513 45.3511 147.546 44.9516 147.546 44.4412V6.49141Z" fill="black"/>
<path d="M164.559 6.42483C163.122 6.73553 161.795 7.01294 160.579 7.25706C160.049 7.36802 159.518 7.46789 158.988 7.55666C158.479 7.64543 157.993 7.7342 157.528 7.82298C157.064 7.88955 156.644 7.94504 156.268 7.98942C155.914 8.03381 155.649 8.056 155.472 8.056C155.096 8.056 154.776 7.98942 154.51 7.85627C154.267 7.70092 154.145 7.40131 154.145 6.95746V3.22906C154.145 2.80739 154.322 2.43012 154.676 2.09722C155.03 1.74214 155.583 1.5646 156.334 1.5646H197.492C198.243 1.5646 198.796 1.74214 199.15 2.09722C199.504 2.43012 199.68 2.80739 199.68 3.22906V6.95746C199.68 7.40131 199.548 7.70092 199.283 7.85627C199.039 7.98942 198.73 8.056 198.354 8.056C198.155 8.056 197.879 8.03381 197.525 7.98942C197.171 7.94504 196.762 7.88955 196.298 7.82298C195.833 7.7342 195.336 7.64543 194.805 7.55666C194.297 7.46789 193.777 7.36802 193.247 7.25706C192.031 7.01294 190.704 6.73553 189.267 6.42483V44.8073C189.267 45.5619 189.2 46.2277 189.068 46.8047C188.935 47.3595 188.681 47.8367 188.305 48.2361C187.951 48.6134 187.454 48.9019 186.813 49.1017C186.171 49.2792 185.353 49.368 184.358 49.368H169.567C168.528 49.368 167.677 49.2681 167.013 49.0684C166.372 48.8686 165.864 48.5801 165.488 48.2029C165.134 47.8256 164.891 47.3484 164.758 46.7714C164.626 46.1944 164.559 45.5175 164.559 44.7408V6.42483ZM186.448 5.72575L183.861 5.15984V46.5717C184.392 46.5717 184.823 46.5606 185.154 46.5384C185.486 46.494 185.751 46.4052 185.95 46.2721C186.149 46.1167 186.282 45.9059 186.348 45.6396C186.415 45.3511 186.448 44.9516 186.448 44.4412V5.72575Z" fill="black"/>
<path d="M203.428 6.22509C203.428 5.44834 203.494 4.77146 203.627 4.19445C203.76 3.61743 204.014 3.14029 204.39 2.76301C204.766 2.36354 205.285 2.06393 205.949 1.8642C206.612 1.66446 207.474 1.5646 208.535 1.5646H223.327C224.609 1.5646 225.582 1.75323 226.245 2.13051C226.931 2.50779 227.406 2.98494 227.671 3.56195C227.959 4.11677 228.114 4.71598 228.136 5.35957C228.158 5.98097 228.169 6.55798 228.169 7.09061V44.8073C229.694 44.5854 231.109 44.3857 232.414 44.2081C232.967 44.1416 233.519 44.075 234.072 44.0084C234.647 43.9196 235.167 43.842 235.631 43.7754C236.117 43.7088 236.548 43.6644 236.924 43.6422C237.3 43.5978 237.577 43.5756 237.753 43.5756C238.129 43.5756 238.428 43.6533 238.649 43.8087C238.892 43.9418 239.014 44.2303 239.014 44.6742V47.7368C239.014 48.1363 238.837 48.5135 238.483 48.8686C238.151 49.2015 237.61 49.368 236.858 49.368H208.469C207.43 49.368 206.579 49.2681 205.915 49.0684C205.274 48.8686 204.766 48.5801 204.39 48.2029C204.014 47.8256 203.76 47.3484 203.627 46.7714C203.494 46.1944 203.428 45.5175 203.428 44.7408V6.22509ZM225.35 6.49141C225.35 6.00316 225.317 5.61479 225.25 5.32628C225.184 5.03778 225.051 4.82694 224.852 4.69379C224.653 4.53844 224.388 4.44966 224.056 4.42747C223.725 4.38309 223.294 4.36089 222.763 4.36089V45.573L225.35 45.1735V6.49141Z" fill="black"/>
<path d="M242.761 6.22509C242.761 5.44834 242.828 4.77146 242.96 4.19445C243.093 3.61743 243.347 3.14029 243.723 2.76301C244.099 2.36354 244.619 2.06393 245.282 1.8642C245.945 1.66446 246.807 1.5646 247.869 1.5646H262.66C263.942 1.5646 264.915 1.75323 265.579 2.13051C266.264 2.50779 266.739 2.98494 267.005 3.56195C267.292 4.11677 267.447 4.71598 267.469 5.35957C267.491 5.98097 267.502 6.55798 267.502 7.09061V43.9751C267.502 44.4855 267.458 45.0515 267.369 45.6729C267.281 46.2943 267.06 46.8824 266.706 47.4372C266.352 47.9698 265.811 48.4248 265.081 48.8021C264.352 49.1793 263.346 49.368 262.063 49.368H247.869C246.807 49.368 245.945 49.2681 245.282 49.0684C244.619 48.8686 244.099 48.5801 243.723 48.2029C243.347 47.8256 243.093 47.3484 242.96 46.7714C242.828 46.1944 242.761 45.5175 242.761 44.7408V6.22509ZM264.683 6.49141C264.683 6.00316 264.65 5.61479 264.584 5.32628C264.517 5.03778 264.385 4.82694 264.186 4.69379C263.987 4.53844 263.721 4.44966 263.39 4.42747C263.058 4.38309 262.627 4.36089 262.096 4.36089V46.5717C262.627 46.5717 263.058 46.5606 263.39 46.5384C263.721 46.494 263.987 46.4052 264.186 46.2721C264.385 46.1167 264.517 45.9059 264.584 45.6396C264.65 45.3511 264.683 44.9516 264.683 44.4412V6.49141Z" fill="black"/>
<path d="M311.711 1.5646C312.131 1.5646 312.507 1.69775 312.838 1.96407C313.17 2.23038 313.336 2.74082 313.336 3.49537V46.9046C313.336 48.5468 312.562 49.368 311.014 49.368H299.506C298.776 49.368 298.168 49.2237 297.682 48.9352C297.218 48.6467 296.798 48.3138 296.422 47.9365L279.441 30.1268C279.64 33.0119 279.839 35.6639 280.038 38.0829C280.105 39.126 280.182 40.1579 280.271 41.1788C280.359 42.1997 280.436 43.154 280.503 44.0417C280.569 44.9294 280.624 45.7062 280.668 46.3719C280.735 47.0377 280.779 47.5149 280.801 47.8034C280.845 48.1807 280.779 48.5357 280.602 48.8686C280.447 49.2015 280.072 49.368 279.475 49.368H275.296C274.898 49.368 274.522 49.2459 274.168 49.0018C273.837 48.7355 273.671 48.225 273.671 47.4705V4.028C273.671 2.38573 274.577 1.5646 276.39 1.5646H287.6C288.44 1.5646 289.137 1.74214 289.689 2.09722C290.264 2.45231 290.839 2.91836 291.414 3.49537L307.565 19.5741C307.344 16.9331 307.145 14.4919 306.968 12.2504C306.88 11.2962 306.791 10.3419 306.703 9.38757C306.636 8.43328 306.57 7.54557 306.504 6.72443C306.437 5.8811 306.371 5.14874 306.305 4.52734C306.261 3.90594 306.227 3.43989 306.205 3.12919C306.161 2.77411 306.227 2.43012 306.404 2.09722C306.603 1.74214 307.045 1.5646 307.731 1.5646H311.711ZM289.125 5.2597C288.728 4.86023 288.396 4.61611 288.131 4.52734C287.887 4.41638 287.545 4.36089 287.102 4.36089H284.748L307.565 27.1307V23.6021L289.125 5.2597Z" fill="black"/>
<path d="M38.8653 103.35C39.1085 100.931 39.7607 98.9113 40.822 97.2912C41.8833 95.6711 43.1988 94.3839 44.7686 93.4296C46.3384 92.4532 48.085 91.7652 50.0086 91.3657C51.9321 90.9662 53.8778 90.7665 55.8456 90.7665C57.4596 90.7665 59.0404 90.8331 60.5881 90.9662C62.1358 91.0994 63.5619 91.2547 64.8663 91.4323C66.1708 91.6098 67.2984 91.7874 68.2491 91.9649C69.1998 92.1425 69.8963 92.2756 70.3385 92.3644C70.6038 92.431 70.7365 92.553 70.7365 92.7306C70.7365 92.7749 70.7144 92.9081 70.6701 93.13L70.1727 95.5269C70.1284 95.6822 70.0621 95.7821 69.9737 95.8265C69.9073 95.8487 69.841 95.8598 69.7747 95.8598C68.8019 95.8598 67.9617 96.0262 67.2542 96.3591C66.5467 96.692 65.9608 97.158 65.4965 97.7572C65.0322 98.3565 64.6784 99.0666 64.4352 99.8878C64.192 100.709 64.0262 101.597 63.9377 102.551L61.9478 126.752C61.771 128.705 61.2735 130.547 60.4554 132.278C59.6374 134.009 58.4987 135.518 57.0395 136.806C55.5802 138.093 53.7893 139.114 51.6668 139.868C49.5443 140.623 47.1122 141 44.3706 141C42.5355 141 40.7667 140.911 39.0643 140.734C37.3618 140.556 35.8141 140.345 34.4212 140.101C33.0283 139.857 31.8233 139.624 30.8063 139.402C29.8113 139.158 29.0928 138.98 28.6506 138.869C28.3853 138.803 28.2526 138.681 28.2526 138.503C28.2526 138.481 28.2747 138.359 28.3189 138.137L28.8827 135.607C28.9269 135.452 28.9822 135.363 29.0485 135.341C29.137 135.296 29.2144 135.274 29.2807 135.274C30.2535 135.274 31.149 135.13 31.967 134.841C32.8072 134.553 33.5368 134.076 34.1559 133.41C34.775 132.744 35.2835 131.879 35.6815 130.813C36.1016 129.748 36.389 128.439 36.5437 126.885L38.8653 103.35ZM49.1131 137.838C50.7935 137.438 52.2417 136.85 53.4577 136.073C54.6958 135.274 55.7129 134.364 56.5088 133.343C57.3269 132.323 57.946 131.246 58.3661 130.114C58.8083 128.96 59.0736 127.84 59.162 126.752L61.1519 102.551C61.2182 101.663 61.3509 100.82 61.5499 100.021C61.771 99.222 62.0584 98.5007 62.4121 97.8571C62.788 97.2135 63.2523 96.6698 63.8051 96.2259C64.3799 95.7599 65.0543 95.4381 65.8281 95.2606C64.2583 95.3271 62.9981 95.5934 62.0473 96.0595C61.1187 96.5255 60.4002 97.1137 59.8916 97.8238C59.3831 98.5118 59.0294 99.2775 58.8304 100.121C58.6535 100.964 58.5319 101.774 58.4656 102.551L56.4425 126.752C56.3541 127.773 56.1219 128.816 55.7461 129.881C55.3923 130.924 54.8948 131.934 54.2537 132.911C53.6346 133.865 52.8939 134.775 52.0316 135.64C51.1693 136.484 50.1965 137.216 49.1131 137.838Z" fill="black"/>
<path d="M74.0198 96.5588C74.0198 95.7821 74.0861 95.1052 74.2188 94.5282C74.3514 93.9512 74.6057 93.474 74.9815 93.0967C75.3574 92.6973 75.877 92.3977 76.5403 92.1979C77.2036 91.9982 78.0658 91.8983 79.1271 91.8983H93.9185C95.2009 91.8983 96.1737 92.087 96.837 92.4642C97.5224 92.8415 97.9978 93.3187 98.2631 93.8957C98.5505 94.4505 98.7053 95.0497 98.7274 95.6933C98.7495 96.3147 98.7606 96.8917 98.7606 97.4244V134.309C98.7606 134.819 98.7164 135.385 98.6279 136.007C98.5395 136.628 98.3184 137.216 97.9646 137.771C97.6109 138.304 97.0692 138.759 96.3396 139.136C95.6099 139.513 94.6039 139.702 93.3216 139.702H79.1271C78.0658 139.702 77.2036 139.602 76.5403 139.402C75.877 139.202 75.3574 138.914 74.9815 138.537C74.6057 138.159 74.3514 137.682 74.2188 137.105C74.0861 136.528 74.0198 135.851 74.0198 135.075V96.5588ZM95.9416 96.8251C95.9416 96.3369 95.9084 95.9485 95.8421 95.66C95.7758 95.3715 95.6431 95.1607 95.4441 95.0275C95.2451 94.8722 94.9798 94.7834 94.6482 94.7612C94.3165 94.7168 93.8854 94.6946 93.3547 94.6946V136.905C93.8854 136.905 94.3165 136.894 94.6482 136.872C94.9798 136.828 95.2451 136.739 95.4441 136.606C95.6431 136.45 95.7758 136.24 95.8421 135.973C95.9084 135.685 95.9416 135.285 95.9416 134.775V96.8251Z" fill="black"/>
<path d="M112.69 103.35C112.933 100.931 113.585 98.9113 114.646 97.2912C115.708 95.6711 117.023 94.3839 118.593 93.4296C120.163 92.4532 121.909 91.7652 123.833 91.3657C125.757 90.9662 127.702 90.7665 129.67 90.7665C131.284 90.7665 132.865 90.8331 134.413 90.9662C135.96 91.0994 137.386 91.2547 138.691 91.4323C139.995 91.6098 141.123 91.7874 142.074 91.9649C143.024 92.1425 143.721 92.2756 144.163 92.3644C144.428 92.431 144.561 92.553 144.561 92.7306C144.561 92.7749 144.539 92.9081 144.495 93.13L143.997 95.5269C143.953 95.6822 143.887 95.7821 143.798 95.8265C143.732 95.8487 143.665 95.8598 143.599 95.8598C142.626 95.8598 141.786 96.0262 141.079 96.3591C140.371 96.692 139.785 97.158 139.321 97.7572C138.857 98.3565 138.503 99.0666 138.26 99.8878C138.016 100.709 137.851 101.597 137.762 102.551L135.772 126.752C135.595 128.705 135.098 130.547 134.28 132.278C133.462 134.009 132.323 135.518 130.864 136.806C129.405 138.093 127.614 139.114 125.491 139.868C123.369 140.623 120.937 141 118.195 141C116.36 141 114.591 140.911 112.889 140.734C111.186 140.556 109.639 140.345 108.246 140.101C106.853 139.857 105.648 139.624 104.631 139.402C103.636 139.158 102.917 138.98 102.475 138.869C102.21 138.803 102.077 138.681 102.077 138.503C102.077 138.481 102.099 138.359 102.143 138.137L102.707 135.607C102.751 135.452 102.807 135.363 102.873 135.341C102.961 135.296 103.039 135.274 103.105 135.274C104.078 135.274 104.973 135.13 105.791 134.841C106.632 134.553 107.361 134.076 107.98 133.41C108.599 132.744 109.108 131.879 109.506 130.813C109.926 129.748 110.213 128.439 110.368 126.885L112.69 103.35ZM122.938 137.838C124.618 137.438 126.066 136.85 127.282 136.073C128.52 135.274 129.537 134.364 130.333 133.343C131.151 132.323 131.77 131.246 132.191 130.114C132.633 128.96 132.898 127.84 132.986 126.752L134.976 102.551C135.043 101.663 135.175 100.82 135.374 100.021C135.595 99.222 135.883 98.5007 136.237 97.8571C136.612 97.2135 137.077 96.6698 137.63 96.2259C138.204 95.7599 138.879 95.4381 139.653 95.2606C138.083 95.3271 136.822 95.5934 135.872 96.0595C134.943 96.5255 134.225 97.1137 133.716 97.8238C133.208 98.5118 132.854 99.2775 132.655 100.121C132.478 100.964 132.356 101.774 132.29 102.551L130.267 126.752C130.179 127.773 129.946 128.816 129.571 129.881C129.217 130.924 128.719 131.934 128.078 132.911C127.459 133.865 126.718 134.775 125.856 135.64C124.994 136.484 124.021 137.216 122.938 137.838Z" fill="black"/>
<path d="M155.87 96.7586C154.433 97.0693 153.106 97.3467 151.89 97.5908C151.36 97.7018 150.829 97.8016 150.298 97.8904C149.79 97.9792 149.303 98.0679 148.839 98.1567C148.375 98.2233 147.955 98.2788 147.579 98.3232C147.225 98.3675 146.96 98.3897 146.783 98.3897C146.407 98.3897 146.086 98.3232 145.821 98.19C145.578 98.0347 145.456 97.7351 145.456 97.2912V93.5628C145.456 93.1411 145.633 92.7639 145.987 92.431C146.341 92.0759 146.893 91.8983 147.645 91.8983H188.803C189.554 91.8983 190.107 92.0759 190.461 92.431C190.814 92.7639 190.991 93.1411 190.991 93.5628V97.2912C190.991 97.7351 190.859 98.0347 190.593 98.19C190.35 98.3232 190.041 98.3897 189.665 98.3897C189.466 98.3897 189.189 98.3675 188.836 98.3232C188.482 98.2788 188.073 98.2233 187.609 98.1567C187.144 98.0679 186.647 97.9792 186.116 97.8904C185.608 97.8016 185.088 97.7018 184.557 97.5908C183.341 97.3467 182.015 97.0693 180.578 96.7586V135.141C180.578 135.896 180.511 136.561 180.379 137.138C180.246 137.693 179.992 138.17 179.616 138.57C179.262 138.947 178.765 139.236 178.123 139.435C177.482 139.613 176.664 139.702 175.669 139.702H160.878C159.839 139.702 158.988 139.602 158.324 139.402C157.683 139.202 157.175 138.914 156.799 138.537C156.445 138.159 156.202 137.682 156.069 137.105C155.936 136.528 155.87 135.851 155.87 135.075V96.7586ZM177.759 96.0595L175.172 95.4936V136.905C175.702 136.905 176.134 136.894 176.465 136.872C176.797 136.828 177.062 136.739 177.261 136.606C177.46 136.45 177.593 136.24 177.659 135.973C177.726 135.685 177.759 135.285 177.759 134.775V96.0595Z" fill="black"/>
<path d="M214.804 141C213.035 141 211.255 140.845 209.464 140.534C207.695 140.223 205.993 139.691 204.357 138.936C202.721 138.182 201.195 137.183 199.78 135.94C198.365 134.675 197.127 133.11 196.066 131.246C195.026 129.36 194.208 127.141 193.611 124.588C193.014 122.014 192.716 119.029 192.716 115.634C192.716 112.26 193.014 109.286 193.611 106.712C194.208 104.138 195.026 101.918 196.066 100.054C197.127 98.1678 198.365 96.6032 199.78 95.3604C201.195 94.1176 202.721 93.13 204.357 92.3977C205.993 91.6431 207.695 91.1105 209.464 90.7998C211.255 90.4891 213.035 90.3337 214.804 90.3337C216.572 90.3337 218.352 90.4891 220.143 90.7998C221.934 91.1105 223.647 91.6431 225.284 92.3977C226.92 93.13 228.445 94.1176 229.86 95.3604C231.275 96.6032 232.502 98.1678 233.542 100.054C234.581 101.918 235.399 104.138 235.996 106.712C236.593 109.286 236.891 112.26 236.891 115.634C236.891 119.007 236.593 121.981 235.996 124.555C235.399 127.129 234.581 129.36 233.542 131.246C232.502 133.11 231.275 134.675 229.86 135.94C228.445 137.183 226.92 138.182 225.284 138.936C223.647 139.691 221.934 140.223 220.143 140.534C218.352 140.845 216.572 141 214.804 141ZM217.788 115.634C217.788 118.408 217.987 120.727 218.385 122.591C218.805 124.455 219.358 125.953 220.044 127.085C220.729 128.217 221.492 129.027 222.332 129.515C223.194 129.981 224.079 130.214 224.985 130.214C225.892 130.214 226.776 129.981 227.638 129.515C228.501 129.027 229.263 128.217 229.927 127.085C230.612 125.953 231.154 124.455 231.552 122.591C231.972 120.727 232.182 118.408 232.182 115.634C232.182 112.859 231.972 110.54 231.552 108.676C231.154 106.812 230.612 105.314 229.927 104.182C229.263 103.05 228.501 102.251 227.638 101.785C226.776 101.297 225.892 101.053 224.985 101.053C224.079 101.053 223.194 101.297 222.332 101.785C221.492 102.251 220.729 103.05 220.044 104.182C219.358 105.314 218.805 106.812 218.385 108.676C217.987 110.54 217.788 112.859 217.788 115.634ZM214.969 115.634C214.969 112.859 215.19 110.463 215.633 108.443C216.097 106.424 216.683 104.748 217.39 103.416C218.098 102.085 218.894 101.075 219.778 100.387C220.685 99.6769 221.591 99.2331 222.498 99.0555C221.193 99.1221 219.922 99.4661 218.684 100.087C217.446 100.709 216.34 101.674 215.367 102.984C214.417 104.293 213.654 105.991 213.079 108.077C212.504 110.141 212.217 112.66 212.217 115.634C212.217 118.607 212.504 121.137 213.079 123.224C213.654 125.287 214.417 126.974 215.367 128.283C216.34 129.593 217.446 130.558 218.684 131.18C219.922 131.801 221.193 132.145 222.498 132.212C221.591 132.056 220.685 131.624 219.778 130.913C218.894 130.203 218.098 129.182 217.39 127.851C216.683 126.519 216.097 124.844 215.633 122.824C215.19 120.805 214.969 118.408 214.969 115.634Z" fill="black"/>
<path d="M248.399 103.35C248.643 100.931 249.295 98.9113 250.356 97.2912C251.417 95.6711 252.733 94.3839 254.303 93.4296C255.872 92.4532 257.619 91.7652 259.543 91.3657C261.466 90.9662 263.412 90.7665 265.38 90.7665C266.994 90.7665 268.574 90.8331 270.122 90.9662C271.67 91.0994 273.096 91.2547 274.4 91.4323C275.705 91.6098 276.832 91.7874 277.783 91.9649C278.734 92.1425 279.43 92.2756 279.873 92.3644C280.138 92.431 280.271 92.553 280.271 92.7306C280.271 92.7749 280.248 92.9081 280.204 93.13L279.707 95.5269C279.663 95.6822 279.596 95.7821 279.508 95.8265C279.441 95.8487 279.375 95.8598 279.309 95.8598C278.336 95.8598 277.496 96.0262 276.788 96.3591C276.081 96.692 275.495 97.158 275.031 97.7572C274.566 98.3565 274.212 99.0666 273.969 99.8878C273.726 100.709 273.56 101.597 273.472 102.551L271.482 126.752C271.305 128.705 270.808 130.547 269.99 132.278C269.171 134.009 268.033 135.518 266.574 136.806C265.114 138.093 263.323 139.114 261.201 139.868C259.078 140.623 256.646 141 253.905 141C252.07 141 250.301 140.911 248.598 140.734C246.896 140.556 245.348 140.345 243.955 140.101C242.562 139.857 241.357 139.624 240.34 139.402C239.345 139.158 238.627 138.98 238.185 138.869C237.919 138.803 237.787 138.681 237.787 138.503C237.787 138.481 237.809 138.359 237.853 138.137L238.417 135.607C238.461 135.452 238.516 135.363 238.583 135.341C238.671 135.296 238.748 135.274 238.815 135.274C239.788 135.274 240.683 135.13 241.501 134.841C242.341 134.553 243.071 134.076 243.69 133.41C244.309 132.744 244.818 131.879 245.216 130.813C245.636 129.748 245.923 128.439 246.078 126.885L248.399 103.35ZM258.647 137.838C260.328 137.438 261.776 136.85 262.992 136.073C264.23 135.274 265.247 134.364 266.043 133.343C266.861 132.323 267.48 131.246 267.9 130.114C268.342 128.96 268.608 127.84 268.696 126.752L270.686 102.551C270.752 101.663 270.885 100.82 271.084 100.021C271.305 99.222 271.592 98.5007 271.946 97.8571C272.322 97.2135 272.786 96.6698 273.339 96.2259C273.914 95.7599 274.588 95.4381 275.362 95.2606C273.792 95.3271 272.532 95.5934 271.581 96.0595C270.653 96.5255 269.934 97.1137 269.426 97.8238C268.917 98.5118 268.563 99.2775 268.364 100.121C268.188 100.964 268.066 101.774 268 102.551L265.977 126.752C265.888 127.773 265.656 128.816 265.28 129.881C264.926 130.924 264.429 131.934 263.788 132.911C263.169 133.865 262.428 134.775 261.566 135.64C260.703 136.484 259.731 137.216 258.647 137.838Z" fill="black"/>
<path d="M303.618 141C301.85 141 300.07 140.845 298.279 140.534C296.51 140.223 294.808 139.691 293.172 138.936C291.535 138.182 290.01 137.183 288.595 135.94C287.18 134.675 285.942 133.11 284.88 131.246C283.841 129.36 283.023 127.141 282.426 124.588C281.829 122.014 281.531 119.029 281.531 115.634C281.531 112.26 281.829 109.286 282.426 106.712C283.023 104.138 283.841 101.918 284.88 100.054C285.942 98.1678 287.18 96.6032 288.595 95.3604C290.01 94.1176 291.535 93.13 293.172 92.3977C294.808 91.6431 296.51 91.1105 298.279 90.7998C300.07 90.4891 301.85 90.3337 303.618 90.3337C305.387 90.3337 307.167 90.4891 308.958 90.7998C310.749 91.1105 312.462 91.6431 314.098 92.3977C315.735 93.13 317.26 94.1176 318.675 95.3604C320.09 96.6032 321.317 98.1678 322.356 100.054C323.396 101.918 324.214 104.138 324.811 106.712C325.408 109.286 325.706 112.26 325.706 115.634C325.706 119.007 325.408 121.981 324.811 124.555C324.214 127.129 323.396 129.36 322.356 131.246C321.317 133.11 320.09 134.675 318.675 135.94C317.26 137.183 315.735 138.182 314.098 138.936C312.462 139.691 310.749 140.223 308.958 140.534C307.167 140.845 305.387 141 303.618 141ZM306.603 115.634C306.603 118.408 306.802 120.727 307.2 122.591C307.62 124.455 308.173 125.953 308.858 127.085C309.544 128.217 310.307 129.027 311.147 129.515C312.009 129.981 312.893 130.214 313.8 130.214C314.706 130.214 315.591 129.981 316.453 129.515C317.315 129.027 318.078 128.217 318.741 127.085C319.427 125.953 319.969 124.455 320.367 122.591C320.787 120.727 320.997 118.408 320.997 115.634C320.997 112.859 320.787 110.54 320.367 108.676C319.969 106.812 319.427 105.314 318.741 104.182C318.078 103.05 317.315 102.251 316.453 101.785C315.591 101.297 314.706 101.053 313.8 101.053C312.893 101.053 312.009 101.297 311.147 101.785C310.307 102.251 309.544 103.05 308.858 104.182C308.173 105.314 307.62 106.812 307.2 108.676C306.802 110.54 306.603 112.859 306.603 115.634ZM303.784 115.634C303.784 112.859 304.005 110.463 304.448 108.443C304.912 106.424 305.498 104.748 306.205 103.416C306.913 102.085 307.709 101.075 308.593 100.387C309.5 99.6769 310.406 99.2331 311.313 99.0555C310.008 99.1221 308.737 99.4661 307.499 100.087C306.261 100.709 305.155 101.674 304.182 102.984C303.231 104.293 302.469 105.991 301.894 108.077C301.319 110.141 301.032 112.66 301.032 115.634C301.032 118.607 301.319 121.137 301.894 123.224C302.469 125.287 303.231 126.974 304.182 128.283C305.155 129.593 306.261 130.558 307.499 131.18C308.737 131.801 310.008 132.145 311.313 132.212C310.406 132.056 309.5 131.624 308.593 130.913C307.709 130.203 306.913 129.182 306.205 127.851C305.498 126.519 304.912 124.844 304.448 122.824C304.005 120.805 303.784 118.408 303.784 115.634Z" fill="black"/>
</svg>
